<svg xmlns="http://www.w3.org/2000/svg" width="14" height="13" viewBox="0 0 14 13">
    <path fill="#4a4a4a" fill-rule="evenodd" stroke="#4a4a4a" stroke-width=".6" d="M12.619 11.403l-2.164-2.164a5.272 5.272 0 0 0 1.146-3.272A5.315 5.315 0 0 0 6.29.657C3.364.657 1 3.057 1 5.985a5.316 5.316 0 0 0 5.31 5.31c1.181 0 2.345-.4 3.272-1.147l2.164 2.164a.59.59 0 0 0 .436.182.59.59 0 0 0 .436-.182c.255-.273.255-.655 0-.91zm-2.291-5.4c0 2.218-1.8 4.036-4.019 4.036a4.05 4.05 0 0 1-4.036-4.036c0-2.218 1.8-4.036 4.036-4.036 2.237 0 4.019 1.8 4.019 4.036z"/>
</svg>
