<svg xmlns="http://www.w3.org/2000/svg" width="20" height="16" viewBox="0 0 20 16">
  <path fill="#4a4a4a" fill-rule="evenodd" d="M19.29 1.918h-2.268V.69c0-.366-.333-.689-.734-.689H.688A.7.7 0 0 0 0 .69v13.175C0 15.03 1 16 2.2 16h15.6c1.2-.021 2.2-.95 2.2-2.135V2.587c0-.368-.311-.669-.71-.669zM2.2 14.598a.739.739 0 0 1-.756-.734V1.4H15.6v12.464c0 .237.045.496.134.733H2.2zm16.356-.734c0 .41-.334.733-.778.733-.423 0-.778-.323-.778-.733V3.297h1.556v10.567zM9 9.012h5.155V7.783H9v1.229zm0 3.192h5.155v-1.229H9v1.229zm-6.155-8.82v2.458h11.311V3.384H2.845zm0 8.82h4.778v-4.4H2.845v4.4z"/>
</svg>
