<?xml version="1.0" ?><svg id="Layer_1" style="enable-background:new 0 0 512 512;" version="1.1" viewBox="0 0 512 512" xml:space="preserve" xmlns="http://www.w3.org/2000/svg" xmlns:xlink="http://www.w3.org/1999/xlink"><g><path d="M381.4,111.4c-4.5-5.2-11.5-6.5-18-7.3c-12-1.4-24-2.2-36-2.5c-6-0.2-12-0.2-18.1-0.2c-3.1,0-6.3,0.1-9.4,0.1   c-3.7,0-3.9,0.3-3.6-3.5c1.5-16.2,1.7-32.4,0.1-48.6C295.1,35,295,7.2,275,6c-6.7-0.4-15.4,2.8-19.1,8.8   c-3.2,5.2-2.6,11.8-2.2,17.5c0.3,5.1-0.5,10.4-1.4,15.4c-2.7,14.1-8.3,27.4-13.9,40.6c-2.6,6.1-5.3,12.1-7.6,18.3   c-1.9,5-3.5,11-8.1,14.3c-1.3,0.9-2.7,1.4-4.2,1.8c-2.6,0.6-14.9,1.2-22,0.5l-0.1-1.4c-0.3-4.5-4-8-8.5-8h-46.8   c-4.5,0-8.2,3.5-8.5,8l-6.4,110.5c-0.3,4.9,3.6,9,8.5,9h59.6c4.2,0,7.6-3,8.3-6.9c5.9,1.9,14.7,5.4,21.9,8.4   c8.2,3.4,17,5.1,25.9,5.1c11.1,0,22.1,0,33.2,0c19,0,38.7,1.6,57.4-2.3c9.1-1.9,14.7-6.9,15-16.5c0.2-7.2-3-16.1-11.5-16.2   c4.4,0,11.3-0.4,14.9-3.1c9.9-7.3,9.3-21.6-0.6-28.7c-0.6-0.5-4.7-3.5-5.2-3.4c1.1-0.2,13.5,0.1,17.4-2.8   c7.4-5.4,8.3-15.3,3.7-22.8c-2.5-4.1-6.5-7.2-11-9.1c8.1,0.3,16.1-3,20-10.5C387.2,125.7,386.3,117.1,381.4,111.4z M180,231   c-5.7,0-10.3-4.6-10.3-10.3c0-5.7,4.6-10.3,10.3-10.3c5.7,0,10.3,4.6,10.3,10.3C190.4,226.4,185.7,231,180,231z"/><path d="M130.6,400.6c4.5,5.2,11.5,6.5,18,7.3c12,1.4,24,2.2,36,2.5c6,0.2,12,0.2,18.1,0.2c3.1,0,6.3-0.1,9.4-0.1   c3.7,0,3.9-0.3,3.6,3.5c-1.5,16.2-1.7,32.4-0.1,48.6c1.4,14.4,1.5,42.2,21.5,43.3c6.7,0.4,15.4-2.8,19.1-8.8   c3.2-5.2,2.6-11.8,2.2-17.5c-0.3-5.1,0.5-10.4,1.4-15.4c2.7-14.1,8.3-27.4,13.9-40.6c2.6-6.1,5.3-12.1,7.6-18.3   c1.9-5,3.5-11,8.1-14.3c1.3-0.9,2.7-1.4,4.2-1.8c2.6-0.6,14.9-1.2,22-0.5l0.1,1.4c0.3,4.5,4,8,8.5,8h46.8c4.5,0,8.2-3.5,8.5-8   l6.4-110.5c0.3-4.9-3.6-9-8.5-9h-59.6c-4.2,0-7.6,3-8.3,6.9c-5.9-1.9-14.7-5.4-21.9-8.4c-8.2-3.4-17-5.1-25.9-5.1   c-11.1,0-22.1,0-33.2,0c-19,0-38.7-1.6-57.4,2.3c-9.1,1.9-14.7,6.9-15,16.5c-0.2,7.2,3,16.1,11.5,16.2c-4.4,0-11.3,0.4-14.9,3.1   c-9.9,7.3-9.3,21.6,0.6,28.7c0.6,0.5,4.7,3.5,5.2,3.4c-1.1,0.2-13.5-0.1-17.4,2.8c-7.4,5.4-8.3,15.3-3.7,22.8   c2.5,4.1,6.5,7.2,11,9.1c-8.1-0.3-16.1,3-20,10.5C124.8,386.3,125.7,394.9,130.6,400.6z M332,281c5.7,0,10.3,4.6,10.3,10.3   c0,5.7-4.6,10.3-10.3,10.3c-5.7,0-10.3-4.6-10.3-10.3C321.6,285.6,326.3,281,332,281z"/></g></svg>