<svg xmlns="http://www.w3.org/2000/svg" xmlns:xlink="http://www.w3.org/1999/xlink" width="382" height="342" viewBox="0 0 382 342">
    <defs>
        <linearGradient id="a" x1="21.314%" x2="115.541%" y1="31.236%" y2="100%">
            <stop offset="0%" stop-color="#BDE366"/>
            <stop offset="43.468%" stop-color="#78D37B"/>
            <stop offset="100%" stop-color="#23C88E"/>
        </linearGradient>
        <path id="c" d="M218 177.491C218 192.678 205.686 205 190.509 205 175.314 205 163 192.678 163 177.491 163 162.304 175.314 150 190.509 150 205.686 150 218 162.304 218 177.491"/>
        <filter id="b" width="158.2%" height="158.2%" x="-29.1%" y="-25.5%" filterUnits="objectBoundingBox">
            <feOffset dy="2" in="SourceAlpha" result="shadowOffsetOuter1"/>
            <feGaussianBlur in="shadowOffsetOuter1" result="shadowBlurOuter1" stdDeviation="5"/>
            <feColorMatrix in="shadowBlurOuter1" values="0 0 0 0 0.388235294 0 0 0 0 0.819607843 0 0 0 0 0.501960784 0 0 0 1 0"/>
        </filter>
        <path id="e" d="M73 241.5c0 15.187-12.3 27.5-27.509 27.5C30.317 269 18 256.687 18 241.5c0-15.17 12.317-27.5 27.491-27.5C60.701 214 73 226.33 73 241.5"/>
        <filter id="d" width="158.2%" height="158.2%" x="-29.1%" y="-25.5%" filterUnits="objectBoundingBox">
            <feOffset dy="2" in="SourceAlpha" result="shadowOffsetOuter1"/>
            <feGaussianBlur in="shadowOffsetOuter1" result="shadowBlurOuter1" stdDeviation="5"/>
            <feColorMatrix in="shadowBlurOuter1" values="0 0 0 0 0.733333333 0 0 0 0 0.88627451 0 0 0 0 0.396078431 0 0 0 1 0"/>
        </filter>
        <path id="g" d="M322 53.983C322 63.933 313.915 72 303.965 72 294.033 72 286 63.932 286 53.983 286 44.05 294.033 36 303.965 36 313.915 36 322 44.05 322 53.983"/>
        <filter id="f" width="188.9%" height="188.9%" x="-44.4%" y="-38.9%" filterUnits="objectBoundingBox">
            <feOffset dy="2" in="SourceAlpha" result="shadowOffsetOuter1"/>
            <feGaussianBlur in="shadowOffsetOuter1" result="shadowBlurOuter1" stdDeviation="5"/>
            <feColorMatrix in="shadowBlurOuter1" values="0 0 0 0 0.388235294 0 0 0 0 0.819607843 0 0 0 0 0.501960784 0 0 0 1 0"/>
        </filter>
        <path id="i" d="M170 14.991C170 23.29 163.289 30 155.009 30 146.71 30 140 23.289 140 14.991 140 6.694 146.711 0 155.009 0 163.289 0 170 6.694 170 14.991"/>
        <filter id="h" width="146.7%" height="146.7%" x="-23.3%" y="-16.7%" filterUnits="objectBoundingBox">
            <feOffset dy="2" in="SourceAlpha" result="shadowOffsetOuter1"/>
            <feGaussianBlur in="shadowOffsetOuter1" result="shadowBlurOuter1" stdDeviation="2"/>
            <feColorMatrix in="shadowBlurOuter1" values="0 0 0 0 0.388235294 0 0 0 0 0.819607843 0 0 0 0 0.501960784 0 0 0 1 0"/>
        </filter>
        <path id="k" d="M356 293.983c0 9.95-8.085 18.017-18.035 18.017-9.932 0-17.965-8.068-17.965-18.017 0-9.933 8.033-17.983 17.965-17.983 9.95 0 18.035 8.05 18.035 17.983"/>
        <filter id="j" width="188.9%" height="188.9%" x="-44.4%" y="-38.9%" filterUnits="objectBoundingBox">
            <feOffset dy="2" in="SourceAlpha" result="shadowOffsetOuter1"/>
            <feGaussianBlur in="shadowOffsetOuter1" result="shadowBlurOuter1" stdDeviation="5"/>
            <feColorMatrix in="shadowBlurOuter1" values="0 0 0 0 0.733333333 0 0 0 0 0.88627451 0 0 0 0 0.396078431 0 0 0 0.505717844 0"/>
        </filter>
    </defs>
    <g fill="none" fill-rule="evenodd">
        <g stroke="#C6EAB5" stroke-width="2">
            <path d="M91 56l67 25M224 93l127 40M32 108l75 21M19 198l51 22M54 298l87 12M148 26l26 34M87 59l93 100M225 26l-15 30M269 72l-46 7M313 248l-46 7M304 197l27 37M291 71l-3 51M310 79l53 57M357 142l-33 12M244 171l-32 5M172 191l-36 17M271 194l-22 50M135 18L85 52M169 96l-46 19M98 138l-76 50M271 87l-64 77M365 149L259 250M169 176L29 190M76 60L42 91M216 273l-30 24M27 142l-4 38M107 150l-4 38M370 148l-27 73M19 210l21 76M129 258l29 35M151 16h69M78 261l-31 32M194 119v38M205 200l20 37M187 201l-15 87M128 140l43 27M218 108l38 39M233 22l43 27"/>
        </g>
        <path fill="url(#a)" d="M123.98 66.52c0 17.918-14.513 32.48-32.39 32.48C73.712 99 59.2 84.438 59.2 66.52 59.2 48.542 73.712 34 91.59 34c17.877 0 32.39 14.542 32.39 32.52" transform="matrix(-1 0 0 1 382 2)"/>
        <g transform="matrix(-1 0 0 1 382 2)">
            <use fill="#000" filter="url(#b)" xlink:href="#c"/>
            <use fill="#63D180" xlink:href="#c"/>
        </g>
        <path fill="#F7F7F7" stroke="#BBE265" stroke-width="2" d="M208 261.991C208 278.564 221.436 292 237.991 292 254.564 292 268 278.564 268 261.991c0-16.59-13.436-29.991-30.009-29.991C221.436 232 208 245.4 208 261.991M244 163c0 22.075 17.925 40 40 40 22.11 0 40-17.925 40-40 0-22.093-17.89-40-40-40-22.075 0-40 17.907-40 40M158 85.5c0 19.044 15.417 34.5 34.491 34.5C211.548 120 227 104.544 227 85.5c0-19.062-15.452-34.5-34.509-34.5C173.417 51 158 66.438 158 85.5"/>
        <path fill="#BBE265" d="M85 128c0 13.263 10.73 24 23.982 24C122.235 152 133 141.263 133 128s-10.765-24-24.018-24S85 114.737 85 128"/>
        <g transform="matrix(-1 0 0 1 382 2)">
            <use fill="#000" filter="url(#d)" xlink:href="#e"/>
            <use fill="#BBE265" xlink:href="#e"/>
        </g>
        <path fill="#F7F7F7" stroke="#BBE265" stroke-width="2" d="M1 112.491C1 128.793 14.199 142 30.473 142 46.801 142 60 128.793 60 112.491 60 96.207 46.801 83 30.473 83 14.2 83 1 96.207 1 112.491"/>
        <path fill="url(#a)" d="M246.383 307.083c0 17.719-14.43 32.1-32.192 32.1-17.779 0-32.191-14.381-32.191-32.1 0-17.72 14.412-32.083 32.191-32.083 17.762 0 32.192 14.363 32.192 32.083" transform="matrix(-1 0 0 1 382 2)"/>
        <g transform="matrix(-1 0 0 1 382 2)">
            <use fill="#000" filter="url(#f)" xlink:href="#g"/>
            <use fill="#63D180" xlink:href="#g"/>
        </g>
        <g transform="matrix(-1 0 0 1 382 2)">
            <use fill="#000" filter="url(#h)" xlink:href="#i"/>
            <use fill="#63D180" xlink:href="#i"/>
        </g>
        <path fill="#BBE265" d="M128 16.991C128 25.29 134.711 32 142.991 32 151.29 32 158 25.289 158 16.991 158 8.694 151.289 2 142.991 2 134.711 2 128 8.694 128 16.991"/>
        <path fill="#F7F7F7" stroke="#BBE265" stroke-width="2" d="M62 229c0 22.075 17.925 40 40 40 22.11 0 40-17.925 40-40 0-22.093-17.89-40-40-40-22.075 0-40 17.907-40 40"/>
        <g transform="matrix(-1 0 0 1 382 2)">
            <use fill="#000" filter="url(#j)" xlink:href="#k"/>
            <use fill="#BBE265" xlink:href="#k"/>
        </g>
        <path fill="#63D180" d="M1 195.983C1 205.933 9.085 214 19.035 214 28.967 214 37 205.932 37 195.983 37 186.05 28.967 178 19.035 178 9.085 178 1 186.05 1 195.983M346 137.983c0 9.95 8.085 18.017 18.035 18.017 9.932 0 17.965-8.068 17.965-18.017 0-9.933-8.033-17.983-17.965-17.983-9.95 0-18.035 8.05-18.035 17.983"/>
        <g fill="#BBE265">
            <path d="M200.54 78.365h-2.422c-.572 0-1.1.33-1.364.837l-1.87 3.72-3.04-8.43a1.552 1.552 0 0 0-1.98-.925 1.522 1.522 0 0 0-.86.749l-2.045 4.05h-2.268a.884.884 0 0 0-.88.88c0 .484.396.88.88.88h2.421c.572 0 1.1-.33 1.364-.837l1.893-3.72L193.384 84c.199.572.75.99 1.365 1.013h.088c.572 0 1.1-.33 1.364-.837l2.07-4.05h2.269c.483 0 .88-.396.88-.88a.884.884 0 0 0-.88-.88z"/>
            <path d="M204.153 70.724h-23.29A3.865 3.865 0 0 0 177 74.588V89.84a3.865 3.865 0 0 0 3.864 3.864h10.59v4.188h-5.012a1.054 1.054 0 0 0 0 2.108h12.484a1.054 1.054 0 0 0 0-2.108h-5.364v-4.188h10.591a3.865 3.865 0 0 0 3.864-3.864V74.588a3.865 3.865 0 0 0-3.864-3.864zm1.757 19.116a1.756 1.756 0 0 1-1.757 1.757h-23.29c-.969 0-1.755-.787-1.755-1.757v-1.668h26.802v1.668zm0-3.775h-26.802V74.588c0-.97.786-1.756 1.756-1.756h23.29a1.754 1.754 0 0 1 1.756 1.756v11.477z"/>
        </g>
        <g fill="#BBE265">
            <path d="M95 217.75c0 .2.106.389.294.53.188.14.44.22.706.22h1v.75c0 .415.447.75 1 .75.553 0 1-.335 1-.75v-.75h1c.553 0 1-.335 1-.75s-.447-.75-1-.75h-4c-.266 0-.518.08-.706.22-.188.141-.294.33-.294.53zM106.5 218.5h1v.75c0 .415.447.75 1 .75.553 0 1-.335 1-.75v-.75h1c.553 0 1-.335 1-.75s-.447-.75-1-.75h-4c-.553 0-1 .335-1 .75s.447.75 1 .75zM100.5 232h4c.553 0 1-.67 1-1.5s-.447-1.5-1-1.5h-4c-.553 0-1 .67-1 1.5s.447 1.5 1 1.5z"/>
            <path d="M83.96 243.007a11.266 11.266 0 0 0-2.611 4.064l-1.217 3.81a2.765 2.765 0 0 0 .403 2.48 2.782 2.782 0 0 0 2.246 1.139h39.437c.886 0 1.721-.422 2.246-1.139a2.756 2.756 0 0 0 .403-2.48l-1.235-3.854h.003a11.296 11.296 0 0 0-3.454-4.792 11.334 11.334 0 0 0-5.411-2.39c-2.258-3.223-.704-6.41 1.1-10.086 1.502-3.055 3.2-6.515 2.731-10.4h-.003a10.836 10.836 0 0 0-4.049-7.348c-.06-7.186-5.442-13.011-12.05-13.011-6.607 0-11.986 5.825-12.05 13.008a10.84 10.84 0 0 0-4.051 7.35c-.47 3.886 1.228 7.348 2.73 10.4 1.805 3.678 3.358 6.864 1.1 10.086h-.002a11.266 11.266 0 0 0-6.266 3.163zm10.266-1.457h.854l.09-.017a5.6 5.6 0 0 1 .75.523l2.38 9.892-.003.003a11.455 11.455 0 0 1-4.071-10.401zm16.62-25.9v3.7c0 .22-.023.443-.064.66-.014.095-.038.19-.055.265a3.708 3.708 0 0 1-3.588 2.775 3.7 3.7 0 0 1-3.59-2.77 3.744 3.744 0 0 1-.122-.93.926.926 0 0 0-.928-.925.926.926 0 0 0-.927.925 3.708 3.708 0 0 1-3.707 3.7 3.7 3.7 0 0 1-3.59-2.77 3.744 3.744 0 0 1-.122-.93v-2.824a22.18 22.18 0 0 0 5.309-.876h11.384zm-7.625-1.85a7.394 7.394 0 0 0 2.745-3.972.904.904 0 0 1 .883-.653h.287c.513 0 .928.414.928.925a5.331 5.331 0 0 0 1.417 3.7h-6.26zm-9.045 12.277c.076-.836.104-1.674.093-2.513a5.544 5.544 0 0 0 4.376 1.284 5.547 5.547 0 0 0 3.854-2.434 5.535 5.535 0 0 0 8.228 1.15c-.012.839.017 1.674.096 2.507.017.197.023.401.023.606 0 1.793-1.939 4.345-5.463 7.193a4.594 4.594 0 0 1-5.77-.003c-3.522-2.845-5.46-5.4-5.46-7.192 0-.205.009-.407.023-.598zm2.484 7.905c-.01-.087-.026-.176-.038-.263.56.518 1.154 1.044 1.823 1.585v-.003a6.448 6.448 0 0 0 8.106.003c.67-.541 1.263-1.067 1.826-1.585l-.038.258a14.035 14.035 0 0 0 .322 6.099 15.856 15.856 0 0 0-2.061 1.703c-1.298 1.193-2.77 2.546-4.1 2.546-1.33 0-2.803-1.353-4.101-2.546a15.856 15.856 0 0 0-2.061-1.703c.553-1.983.664-4.064.322-6.094zm5.84 18.668h-2.125l-2.029-8.435a6.704 6.704 0 0 0 4.153 1.96 6.704 6.704 0 0 0 4.154-1.96l-2.03 8.435H102.5zm4.138 0h-.107l2.547-10.594a5.6 5.6 0 0 1 .75-.523l.09.017h1.783a11.395 11.395 0 0 1-5.063 11.1zm13.088-8.334a9.32 9.32 0 0 1 2.156 3.319l1.22 3.81a.928.928 0 0 1-.884 1.205H109.63a13.617 13.617 0 0 0 3.924-11.074 9.4 9.4 0 0 1 6.17 2.74zm-5.359-29.955a9.08 9.08 0 0 1 2.391 5.22c.406 3.342-1.099 6.403-2.554 9.366-1.709 3.48-3.463 7.068-1.672 10.753h-2.034a11.609 11.609 0 0 1-.316-5.512 29.43 29.43 0 0 1 .495-2.914 7.813 7.813 0 0 0 2.018-4.536c.115.032.237.053.36.058.167 0 .336-.026.495-.08.478-.16 1.933-.642 1.933-6.441 0-.625 0-2.52-1.281-3.093a1.65 1.65 0 0 0-.54-.13 13.9 13.9 0 0 0 .705-2.691zm-1.26 4.74a1.33 1.33 0 0 1 .33-.194c.16.437.226.903.191 1.368 0 2.896-.403 4.191-.634 4.593a2.879 2.879 0 0 1-.415-.445 21.665 21.665 0 0 1 .275-4.087c.07-.408.157-.821.252-1.235zm-10.608-18.251c5.626 0 10.202 5.062 10.202 11.285a12.65 12.65 0 0 1-.11 1.581 3.864 3.864 0 0 1-2.673-3.616 2.783 2.783 0 0 0-2.782-2.775h-.287a2.76 2.76 0 0 0-2.677 2.03c-.908 3.416-5.026 5.312-11.602 5.364a12.287 12.287 0 0 1-.272-2.584c0-6.223 4.576-11.285 10.201-11.285zm-10.937 18.057c.113.047.217.108.313.183.403 1.755.58 3.552.528 5.353-.12.154-.25.298-.398.425-.231-.402-.634-1.697-.634-4.593-.035-.465.032-.93.191-1.368zm-.77 10.04c-1.456-2.96-2.96-6.024-2.554-9.366a9.083 9.083 0 0 1 2.394-5.223c.144.919.38 1.824.704 2.694a1.578 1.578 0 0 0-.539.13c-1.281.573-1.281 2.468-1.281 3.093 0 5.799 1.455 6.281 1.933 6.44.16.055.327.08.495.08.123-.004.244-.025.36-.057a7.802 7.802 0 0 0 2.02 4.536c.215.965.38 1.94.493 2.92.339 1.835.228 3.723-.316 5.506h-2.038c1.791-3.685.038-7.273-1.672-10.753zm1.176 12.603h.406a13.62 13.62 0 0 0 3.92 11.1H82.782a.927.927 0 0 1-.882-1.208l1.203-3.764a9.468 9.468 0 0 1 8.866-6.128z"/>
        </g>
        <path fill="#BBE265" d="M272.568 146c-.498.017-.934.52-.946.946v10.405h-5.676c-.512.013-.933.52-.946.946v18.446a4.267 4.267 0 0 0 4.257 4.257h29.324a4.267 4.267 0 0 0 4.257-4.257v-29.797c0-.495-.451-.946-.946-.946h-29.324zm.946 1.892h27.432v28.851a2.34 2.34 0 0 1-2.365 2.365h-25.895c.478-.687.828-1.468.828-2.365v-28.851zm3.783 2.838c-.5.002-.933.52-.946.946v6.621c0 .495.451.946.946.946h9.46c.495 0 .946-.45.946-.946v-6.621c0-.495-.451-.946-.946-.946h-9.46zm13.244.946a.946.946 0 0 0 0 1.892h6.621a.946.946 0 0 0 0-1.892h-6.621zm-12.298.946h7.568v4.73h-7.568v-4.73zm12.298 3.783a.946.946 0 0 0 0 1.892h6.621a.946.946 0 0 0 0-1.892h-6.621zm-23.65 2.838h4.73v17.5a2.34 2.34 0 0 1-2.364 2.365 2.34 2.34 0 0 1-2.365-2.365v-17.5zm10.406 2.838a.946.946 0 0 0 0 1.892h19.865a.946.946 0 0 0 0-1.892h-19.865zm0 5.203a.946.946 0 0 0 0 1.892h19.865a.946.946 0 0 0 0-1.892h-19.865zm0 5.202a.946.946 0 0 0 0 1.892h19.865a.946.946 0 0 0 0-1.892h-19.865z"/>
        <path fill="#FFF" d="M305.139 75.674l-.137-.037c-1.965-.529-2.628-1.035-3.501-1.368a23.583 23.583 0 0 1-1.712-.72 25.165 25.165 0 0 0 3.339-.784c2.242-.707 3.076-1.439 3.162-1.52l.66-.61-.687-.578c-1.688-1.419-2.017-4.706-2.363-8.185-.343-3.44-.699-6.999-2.32-9.857-1.904-3.36-5.18-5.001-10.017-5.015-4.833.014-8.108 1.655-10.014 5.017-1.621 2.858-1.975 6.416-2.32 9.856-.348 3.48-.675 6.767-2.363 8.186l-.686.578.659.61c.086.081.922.813 3.162 1.52 1 .315 2.114.576 3.34.783-.474.224-1.04.465-1.713.72-.875.335-1.54.84-3.503 1.368l-.135.038a4.342 4.342 0 0 0-2.99 4.12V85h33.129v-5.203a4.34 4.34 0 0 0-2.99-4.123zm-7.195-.322l-1.242 1.195a.792.792 0 0 0-.133.976l.6 1.009-3.383 3.208 2.266-9.044c.234.393.592.758 1.025 1.092l.867 1.564zm-6.379 8.063h-.168l-1.852-7.393a7.502 7.502 0 0 0 2.007.268c.7 0 1.393-.093 2.036-.273l-1.854 7.396h-.169v.002zm-5.134-6.87l-1.242-1.195.864-1.566c.432-.334.792-.699 1.026-1.092l2.268 9.054-3.386-3.2.605-1.031a.794.794 0 0 0-.135-.97zm6.3-20.8c.202-.185.398-.367.592-.55 1.23.925 3.63 2.504 6.555 3.262.156.64.255 1.31.295 2.003h-.36c-.23-1.143-1.119-1.979-3.89-1.979-2.768 0-3.659.836-3.888 1.98h-.965c-.17-.85-.706-1.53-2.103-1.823a28.137 28.137 0 0 0 3.764-2.894zm5.568 5.505c0 .687-.066.802-.086.821-.013.016-.401.367-2.29.367-1.888 0-2.276-.353-2.29-.367-.021-.02-.084-.134-.084-.821 0-.616.124-.727.178-.774.11-.097.595-.414 2.197-.414 1.603 0 2.088.32 2.197.414.053.05.178.16.178.774zm-11.12-1.188c1.604 0 2.087.32 2.198.414.053.047.178.158.178.774 0 .687-.066.802-.084.821-.015.016-.401.367-2.291.367s-2.276-.353-2.29-.367c-.02-.02-.083-.134-.083-.821 0-.303.03-.483.067-.594.459-.162.92-.346 1.382-.552.254-.024.56-.042.924-.042zm-3.918 1.98c.146 1.143.831 1.979 3.92 1.979 3.088 0 3.773-.836 3.92-1.98h.902c.146 1.144.831 1.98 3.919 1.98 3.087 0 3.774-.836 3.92-1.98h.305c-.228 2.362-1.37 4.85-3.21 6.95-.908 1.034-1.928 1.901-2.945 2.505-.909.54-1.77.837-2.427.837s-1.518-.297-2.426-.837c-1.017-.604-2.037-1.47-2.945-2.506-1.84-2.1-2.982-4.587-3.21-6.948h.277zm10.796 12.102c-.338.179-1.217.565-2.505.565-1.287 0-2.148-.386-2.476-.563l-.256-1.017c.97.504 1.914.786 2.745.786.832 0 1.778-.282 2.748-.786l-.256 1.015zm10.46-3.634c-.962.491-3.018 1.287-6.814 1.73a1.728 1.728 0 0 1-.319-.407c-.008-.014-.012-.03-.02-.044l-.005-.936c2.428-2.405 4.415-5.956 4.415-9.672 0-.835-.075-1.635-.212-2.393.133.018.268.034.402.045.146 1.057.255 2.134.36 3.199.335 3.337.653 6.511 2.193 8.478zM300.205 52.8c.738 1.298 1.187 2.808 1.494 4.408-3.12-.428-5.855-2.136-7.24-3.144 1.827-1.903 2.985-3.524 3.276-3.944 1.013.661 1.826 1.544 2.47 2.68zm-17.279 0c.758-1.338 1.748-2.324 3.029-3.014 1.464-.792 3.354-1.196 5.61-1.202 1.84.004 3.432.273 4.752.8a34.201 34.201 0 0 1-4.675 5.21c-1.733 1.569-3.507 2.813-5.268 3.704-.184.093-.368.182-.552.267-.907.127-1.508.388-1.902.744-.972.309-1.936.507-2.888.592.3-2.575.752-5.09 1.894-7.101zm-2.248 18.517c-.956-.287-1.623-.578-2.064-.806 1.541-1.967 1.858-5.143 2.19-8.48l.054-.53c.166-.012.334-.027.503-.044.095 3.616 2.043 7.05 4.411 9.395l-.005.936c-.008.014-.012.03-.02.044-.056.105-.15.24-.317.406-1.643-.187-3.288-.478-4.752-.921zm-4.093 8.48c0-1.179.754-2.224 1.88-2.61l.09-.026a15.106 15.106 0 0 0 2.954-1.104c.253-.123.473-.228.687-.309.396-.15.824-.32 1.259-.508a.79.79 0 0 0 .198.831l1.233 1.186-.608 1.035a.793.793 0 0 0 .139.976l4.393 4.148h-12.225v-3.618zm29.963 3.619h-12.23l4.4-4.17a.796.796 0 0 0 .137-.98l-.604-1.013 1.23-1.184a.788.788 0 0 0 .2-.831c.434.19.864.36 1.258.51.214.08.431.186.686.307.657.315 1.475.707 2.956 1.104l.088.026a2.762 2.762 0 0 1 1.88 2.611v3.62h-.001z"/>
        <path fill="#BBE265" d="M224.542 272.492h24.82c.527 0 .954-.43.954-.959V250.45a.957.957 0 0 0-.954-.958h-24.82a.957.957 0 0 0-.955.958v21.083c0 .53.428.959.955.959zm.954-1.917v-8.625h2.864c.39 0 .742-.238.887-.603l.716-1.799 1.279 6.423c.087.44.467.759.913.77h.024c.437 0 .819-.297.926-.726l1.866-7.493 2.002 9.378c.092.427.46.739.896.756a.957.957 0 0 0 .953-.68l1.996-6.685.002.004c.13.391.495.655.905.655h6.682v8.625h-22.91zm22.911-19.167v8.625h-5.994l-.738-2.22a.954.954 0 0 0-.905-.655h-.014a.955.955 0 0 0-.899.683l-1.796 6.008-2.084-9.767a.959.959 0 0 0-.917-.759.952.952 0 0 0-.942.727l-1.834 7.365-1.076-5.404a.958.958 0 0 0-.85-.767.948.948 0 0 0-.974.599l-1.67 4.19h-2.218v-8.625h22.911z"/>
        <path fill="#FFF" d="M180.902 305.85c0-5.979-4.872-10.85-10.85-10.85-5.98 0-10.85 4.871-10.85 10.85 0 2.612.937 5.015 2.482 6.89l-6.376 6.366a1.053 1.053 0 0 0 1.487 1.488l6.366-6.377a10.813 10.813 0 0 0 6.89 2.483c5.98 0 10.85-4.871 10.85-10.85zm-2.1 0a8.734 8.734 0 0 1-8.75 8.75 8.734 8.734 0 0 1-8.75-8.75 8.734 8.734 0 0 1 8.75-8.75 8.734 8.734 0 0 1 8.75 8.75z"/>
        <g fill="#BBE265">
            <path d="M22.284 108.115c.312 4.636 4.184 8.31 8.898 8.31 4.7 0 8.564-3.658 8.893-8.298.926-.485 1.625-1.595 1.802-2.948.114-.882-.012-1.755-.36-2.456-.33-.671-.848-1.144-1.452-1.342-.396-4.554-4.23-8.139-8.885-8.139-4.649 0-8.479 3.576-8.882 8.144-.598.201-1.108.673-1.435 1.337-.347.701-.475 1.574-.36 2.456.174 1.339.868 2.443 1.781 2.936zm8.898 6.515c-.943 0-1.843-.19-2.666-.522v-2.275c0-.907.883-1.645 1.968-1.645h1.397c1.085 0 1.968.738 1.968 1.645v2.275a7.08 7.08 0 0 1-2.667.522zm0-19.591c2.653 0 4.969 1.462 6.194 3.63-3.82.223-4.247-1.376-4.436-2.086a.9.9 0 0 0-.757-.659.9.9 0 0 0-.894.458c-1.892 3.428-3.81 3.554-6.747 3.226 1.027-2.669 3.613-4.57 6.64-4.57v.001zm-8.71 8.48c.128-.258.3-.426.5-.449.015 0 .031.002.047.004l1.038.136v-1.051c0-.27.017-.535.047-.796.762.088 1.504.158 2.22.158 2.062 0 3.941-.568 5.638-2.866 1.099 1.46 3.127 2.03 6.106 1.75.146.57.233 1.166.233 1.783v1.066l1.05-.18a.454.454 0 0 1 .097-.002c.16.02.33.187.459.445.19.382.257.903.19 1.429-.13.999-.678 1.598-1.021 1.647l-.773.132v.78a7.108 7.108 0 0 1-2.66 5.544v-1.22c0-1.897-1.689-3.44-3.764-3.44h-1.397c-2.075 0-3.763 1.543-3.763 3.44v1.216a7.143 7.143 0 0 1-2.661-5.568v-.77l-.76-.117c-.343-.053-.886-.654-1.014-1.646-.068-.523 0-1.043.188-1.425z"/>
            <path d="M27.617 107.513a2.68 2.68 0 0 0 2.522-1.782h2.084a2.68 2.68 0 0 0 2.522 1.782 2.683 2.683 0 0 0 2.68-2.68 2.683 2.683 0 0 0-2.68-2.68 2.68 2.68 0 0 0-2.52 1.783h-2.086a2.68 2.68 0 0 0-2.52-1.783 2.68 2.68 0 0 0-.002 5.36zm7.13-3.563a.886.886 0 0 1 0 1.77.886.886 0 0 1 0-1.77zm-7.13 0c.487 0 .885.398.885.885a.886.886 0 1 1-.885-.885zM42.375 118.822l.002-.003-.072-.039-.08-.047-.002.003-5.83-3.146-.678 1.257-4.3 7.448-4.58-7.876-.44-.866-6.305 3.194-.009-.012-5.004 2.915.002 5.418h1.795v-4.386l4.072-2.372 2.766 1.026-.857 2.144 8.62 4.245.02-.04.04.071 7.905-4.308-.847-2.114 2.766-1.025 4.072 2.371v4.386h1.795l.001-5.416-4.852-2.828zm-19.226.39l2.497-1.266 3.997 6.874-4.505-2.217.924-2.31-2.913-1.082zm13.097 1.08l.938 2.343-3.993 2.177 3.92-6.793 2.146 1.157-3.011 1.115z"/>
        </g>
        <path fill="#FFF" d="M209.222 179.39c0-1.982-3.703-3.216-8.194-3.891a37.612 37.612 0 0 0 1.564-2.283c1.982-3.163 2.477-5.275 1.472-6.28-.337-.337-.806-.51-1.392-.51-1.569 0-4.15 1.313-7.17 3.54-.677-4.488-1.91-8.188-3.891-8.188s-3.214 3.7-3.89 8.188c-3.02-2.227-5.6-3.54-7.17-3.54-.585 0-1.054.173-1.392.51-1.403 1.403.35 4.902 3.053 8.56-4.5.674-8.212 1.909-8.212 3.893 0 1.981 3.703 3.216 8.194 3.89a37.612 37.612 0 0 0-1.564 2.284c-1.982 3.16-2.477 5.275-1.472 6.28.337.337.806.508 1.392.508 1.569 0 4.15-1.312 7.17-3.539.677 4.488 1.91 8.188 3.89 8.188 1.982 0 3.215-3.7 3.89-8.188 3.02 2.227 5.602 3.54 7.17 3.54.586 0 1.055-.172 1.393-.51 1.004-1.005.51-3.117-1.472-6.28a36.865 36.865 0 0 0-1.564-2.282c4.492-.675 8.195-1.91 8.195-3.89zm-6.55-11.63c.151 0 .351.02.45.118.264.264.258 1.572-1.658 4.628a37.903 37.903 0 0 1-1.952 2.788 64.569 64.569 0 0 0-3.489-.317 62.887 62.887 0 0 0-.317-3.49c3.217-2.445 5.757-3.728 6.966-3.728zm-7.84 11.63c0 .452-.004.891-.012 1.326-.306.317-.614.636-.931.953-.32.32-.636.626-.952.931a73.704 73.704 0 0 1-2.655-.002 74.91 74.91 0 0 1-.95-.93c-.321-.321-.629-.637-.932-.95a73.119 73.119 0 0 1 .002-2.655c.306-.316.614-.635.93-.952.321-.32.637-.627.952-.931a73.566 73.566 0 0 1 2.655 0c.316.304.631.61.951.931.318.317.625.634.932.953.006.433.01.872.01 1.325zm-1.342-4.529c-.295-.28-.589-.56-.88-.828a59.58 59.58 0 0 1 1.888-1.594c.08.775.149 1.599.202 2.467-.41-.018-.813-.034-1.21-.045zm-3.759 0c-.398.011-.801.027-1.21.045.052-.868.121-1.692.2-2.467a57.92 57.92 0 0 1 1.89 1.594c-.29.27-.585.548-.88.828zm-2.648 2.649c-.282.296-.558.592-.832.889a58.418 58.418 0 0 1-1.607-1.896c.78-.08 1.607-.15 2.482-.203-.017.408-.032.813-.043 1.21zm0 3.754c.01.399.026.805.045 1.214a59.842 59.842 0 0 1-2.467-.201 62.447 62.447 0 0 1 1.601-1.896c.275.3.549.596.82.883zm2.648 2.653c.295.282.59.56.881.829a59.58 59.58 0 0 1-1.889 1.593 59.849 59.849 0 0 1-.201-2.467c.409.019.812.034 1.209.045zm3.76 0c.398-.01.801-.026 1.209-.045a59.842 59.842 0 0 1-.202 2.467 57.92 57.92 0 0 1-1.889-1.593c.292-.27.586-.549.881-.829zm2.648-2.648c.28-.294.555-.59.825-.883a62.19 62.19 0 0 1 1.598 1.89c-.775.08-1.598.15-2.468.202.018-.407.034-.812.045-1.209zm0-3.76c-.011-.398-.027-.801-.045-1.209a60.15 60.15 0 0 1 2.468.202 60.34 60.34 0 0 1-1.598 1.89c-.27-.293-.545-.589-.825-.882zm-4.528-14.398c.773 0 2.005 2.64 2.701 7.763-.876.689-1.778 1.439-2.701 2.256a58.542 58.542 0 0 0-2.702-2.256c.697-5.122 1.928-7.763 2.702-7.763zm-11.51 4.767c.102-.103.326-.118.45-.118 1.208 0 3.748 1.282 6.965 3.728a64.713 64.713 0 0 0-.318 3.489c-1.167.075-2.351.18-3.504.319-3.14-4.124-4.141-6.87-3.594-7.418zm-4.768 11.511c0-.775 2.65-2.01 7.786-2.704.717.912 1.476 1.82 2.248 2.696a60.632 60.632 0 0 0-2.267 2.708c-5.125-.694-7.767-1.926-7.767-2.7zm5.217 11.628c-.15 0-.351-.02-.45-.119-.264-.264-.258-1.571 1.658-4.628a37.554 37.554 0 0 1 1.951-2.785c1.15.137 2.327.242 3.49.317.075 1.162.178 2.34.317 3.489-3.217 2.445-5.757 3.726-6.966 3.726zm11.06 4.65c-.773 0-2.004-2.64-2.7-7.762.876-.69 1.777-1.44 2.7-2.256a58.542 58.542 0 0 0 2.702 2.256c-.696 5.122-1.928 7.762-2.701 7.762zm9.852-9.397c1.916 3.058 1.922 4.364 1.658 4.628-.098.099-.298.12-.45.12-1.21 0-3.747-1.282-6.965-3.729.137-1.15.242-2.328.317-3.49a62.887 62.887 0 0 0 3.489-.318c.737.97 1.4 1.908 1.952 2.79zm-1.339-4.18a60.351 60.351 0 0 0-2.262-2.7 61.418 61.418 0 0 0 2.262-2.702c5.124.695 7.766 1.928 7.766 2.701 0 .774-2.642 2.006-7.766 2.702z"/>
        <g fill="#FFF">
            <path d="M117.191 133.666a2.502 2.502 0 0 1-2.357 1.668h-11.668a2.502 2.502 0 0 1-2.357-1.668h16.382zM114.834 137c2.3 0 4.166-1.866 4.166-4.166a.833.833 0 0 0-.834-.834H99.834a.833.833 0 0 0-.834.834c0 2.3 1.866 4.166 4.166 4.166h11.668zM100.809 120.334a2.502 2.502 0 0 1 2.357-1.668h11.668c1.088 0 2.014.697 2.357 1.668H100.81zm2.357-3.334A4.167 4.167 0 0 0 99 121.166c0 .46.373.834.834.834h18.332c.46 0 .834-.373.834-.834 0-2.3-1.866-4.166-4.166-4.166h-11.668z"/>
            <path d="M101.5 133.666h15c.46 0 .834-.372.834-.832v-11.668a.833.833 0 0 0-.834-.832h-15a.833.833 0 0 0-.834.832v11.668c0 .46.374.832.834.832zm.834-11.666h13.332v10h-13.332v-10z"/>
            <path d="M106.5 125.334h5c.46 0 .834-.374.834-.834v-3.334a.833.833 0 0 0-.834-.832h-5a.833.833 0 0 0-.834.832v3.334c0 .46.374.834.834.834zm.834-3.334h3.332v1.666h-3.332V122zM105.666 133.666h6.668c.46 0 .832-.372.832-.832V129.5a.833.833 0 0 0-.832-.834h-6.668a.833.833 0 0 0-.832.834v3.334c0 .46.372.832.832.832zM106.5 132v-1.666h5V132h-5z"/>
            <path d="M108.166 127v-2.5a.833.833 0 1 0-1.666 0v2.5a.834.834 0 0 0 1.666 0zM111.5 127v-2.5a.834.834 0 0 0-1.666 0v2.5a.833.833 0 1 0 1.666 0z"/>
        </g>
        <g fill="#FFF">
            <path d="M339.045 246.271l2.412 2.412a.546.546 0 0 0 .77 0l.662-.66a.546.546 0 0 0 0-.772l-2.412-2.412c.296-.462.516-.978.637-1.532h3.408c.3 0 .544-.245.544-.544v-.934c0-.3-.245-.544-.544-.544h-3.408a4.698 4.698 0 0 0-.637-1.533l2.412-2.412a.546.546 0 0 0 0-.77l-.661-.661a.546.546 0 0 0-.771 0l-2.412 2.412a4.698 4.698 0 0 0-1.532-.638v-3.408c0-.299-.245-.544-.545-.544h-.933c-.3 0-.545.245-.545.544v3.408a4.698 4.698 0 0 0-1.532.638l-2.412-2.412a.546.546 0 0 0-.77 0l-.662.66a.546.546 0 0 0 0 .771l2.412 2.412a4.698 4.698 0 0 0-.637 1.533h-3.408c-.3 0-.544.245-.544.544v.934c0 .299.245.544.544.544h3.408c.12.554.34 1.07.637 1.532l-2.412 2.412a.546.546 0 0 0 0 .771l.661.66a.546.546 0 0 0 .771 0l2.412-2.41c.462.295.978.516 1.532.637v3.407c0 .3.245.545.545.545h.933c.3 0 .545-.246.545-.545v-3.407a4.712 4.712 0 0 0 1.532-.638zm-2.545-1.275a2.705 2.705 0 0 1-2.702-2.702 2.704 2.704 0 0 1 2.702-2.702 2.705 2.705 0 0 1 2.702 2.702 2.705 2.705 0 0 1-2.7 2.702h-.002z"/>
            <path d="M333.283 250.497a.59.59 0 0 0-.647-.462l-.926.126a.492.492 0 0 0-.42.605l.368 1.622a11.165 11.165 0 0 1-6.161-8.01 11.121 11.121 0 0 1 1.748-8.389 11.114 11.114 0 0 1 6.58-4.57c.195-.046.556-.244.49-.64-.064-.395-.112-.602-.187-.99-.073-.387-.526-.4-.738-.348a13.126 13.126 0 0 0-7.819 5.406 13.132 13.132 0 0 0-2.063 9.908 13.172 13.172 0 0 0 7.12 9.38l-1.069.585a.547.547 0 0 0-.215.74l.45.82c.144.261.477.359.74.215l3.076-1.69a.793.793 0 0 0 .371-.798l-.698-3.51zM349.491 239.831a13.172 13.172 0 0 0-7.119-9.379l1.069-.586a.547.547 0 0 0 .215-.74l-.45-.82a.547.547 0 0 0-.74-.216l-3.076 1.69a.793.793 0 0 0-.371.798l.7 3.513c.058.295.35.502.646.46l.926-.125a.492.492 0 0 0 .42-.605l-.367-1.622a11.165 11.165 0 0 1 6.16 8.01 11.126 11.126 0 0 1-1.747 8.39 11.114 11.114 0 0 1-6.581 4.57c-.194.046-.556.245-.49.64.065.396.113.602.187.99.073.387.524.4.739.349a13.126 13.126 0 0 0 7.818-5.407 13.15 13.15 0 0 0 2.061-9.91z"/>
        </g>
    </g>
</svg>
