<?xml version="1.0" encoding="UTF-8"?>
<svg width="24px" height="14px" viewBox="0 0 24 14" version="1.1" xmlns="http://www.w3.org/2000/svg" xmlns:xlink="http://www.w3.org/1999/xlink">
    <!-- Generator: Sketch 61 (89581) - https://sketch.com -->
    <title>Shape</title>
    <desc>Created with Sketch.</desc>
    <g id="Landing-Page" stroke="none" stroke-width="1" fill="none" fill-rule="evenodd">
        <g id="Landing" transform="translate(-708.000000, -882.000000)" fill="#00B0E2" fill-rule="nonzero">
            <path d="M720.003103,882 C711.432118,882 708.161365,888.671876 708.161365,888.671876 L708,889 L708.161365,889.328126 C708.161365,889.328126 711.432118,896 720.003103,896 C728.574088,896 731.844841,889.328126 731.844841,889.328126 L732,889 L731.844841,888.671876 C731.844841,888.671876 728.574088,882 720.003103,882 Z M720.003103,883.555556 C723.081459,883.555556 725.564003,885.986111 725.564003,889 C725.564003,892.013889 723.081459,894.444444 720.003103,894.444444 C716.924748,894.444444 714.442203,892.013889 714.442203,889 C714.442203,885.986111 716.924748,883.555556 720.003103,883.555556 Z M714.349108,884.764757 C713.42436,885.943576 712.853375,887.401909 712.853375,889 C712.853375,890.598091 713.42436,892.056424 714.349108,893.235243 C711.301785,891.752604 710.060513,889.394965 709.861909,889 C710.060513,888.605035 711.301785,886.247396 714.349108,884.764757 Z M725.657099,884.764757 C728.704423,886.247396 729.945695,888.605035 730.144299,889 C729.945695,889.394965 728.704423,891.752604 725.657099,893.235243 C726.581847,892.056424 727.152832,890.598091 727.152832,889 C727.152832,887.401909 726.581847,885.943576 725.657099,884.764757 Z M720.003103,886.666667 C718.687355,886.666667 717.619861,887.711806 717.619861,889 C717.619861,890.288194 718.687355,891.333333 720.003103,891.333333 C721.318852,891.333333 722.386346,890.288194 722.386346,889 C722.386346,887.711806 721.318852,886.666667 720.003103,886.666667 Z" id="Shape"></path>
        </g>
    </g>
</svg>