<svg xmlns="http://www.w3.org/2000/svg" xmlns:xlink="http://www.w3.org/1999/xlink" width="428" height="421" viewBox="0 0 428 421">
    <defs>
        <linearGradient id="c" x1="22.35%" x2="116.57%" y1="29.82%" y2="98.58%">
            <stop offset="0%" stop-color="#BDE366"/>
            <stop offset="43.47%" stop-color="#78D37B"/>
            <stop offset="100%" stop-color="#23C88E"/>
        </linearGradient>
        <circle id="b" cx="125" cy="125" r="125"/>
        <filter id="a" width="112.8%" height="112.8%" x="-6.4%" y="-5.6%" filterUnits="objectBoundingBox">
            <feOffset dy="2" in="SourceAlpha" result="shadowOffsetOuter1"/>
            <feGaussianBlur in="shadowOffsetOuter1" result="shadowBlurOuter1" stdDeviation="5"/>
            <feColorMatrix in="shadowBlurOuter1" values="0 0 0 0 0 0 0 0 0 0 0 0 0 0 0 0 0 0 0.12669837 0"/>
        </filter>
    </defs>
    <g fill="none" fill-rule="evenodd">
        <g fill-rule="nonzero">
            <path fill="#70C946" d="M408.9 269.6c1.9-5.1 3.5-10.3 5-15.6h.6c2.5 0 4.5-2 4.5-4.5 0-1.9-1.2-3.6-2.9-4.2 3.2-14.2 4.9-29.1 4.9-44.3C421 90.2 330.8 0 220 0S19 90.2 19 201c-2.2.2-4 2.1-4 4.5s1.8 4.3 4.2 4.5c.2 4.5.5 9 1 13.4h-.1C9 225.5.9 235.2.9 246.5c0 13 10.5 23.5 23.5 23.5 2.1 0 4.3-.3 6.3-.9h.1c21.8 60.5 71.9 107.6 134.3 125.3-.1.4-.1.7-.1 1.1 0 2.5 2 4.5 4.5 4.5 2.1 0 3.8-1.4 4.3-3.3 3.7.9 7.4 1.6 11.2 2.3v.2c.1 11.5 9.5 20.9 21 20.9 10.3 0 19.3-7.7 20.8-17.9v-.2c63.9-2.1 120.3-34.2 155.6-82.6 5 3.7 10.9 5.7 17.1 5.7 15.7 0 28.5-12.8 28.5-28.5 0-12.2-7.7-23-19.1-27zm-376.8-3l-1.8.6h-.1c-1.9.5-3.8.8-5.7.8C12.7 268 3 258.4 3 246.5c0-10.3 7.3-19.2 17.5-21.1h.1c.6-.1 1.2-.2 1.9-.3.7-.1 1.4-.1 2-.1 11.8 0 21.5 9.6 21.5 21.5 0 8.9-5.6 17-13.9 20.1zM225 399.9c0 .7-.1 1.3-.2 1.9v.2c-1.4 9.2-9.5 16.1-18.8 16.1-10.4 0-18.8-8.4-19-18.7v-.4c0-.6 0-1.2.1-1.7v-.1c.9-9.8 9-17.2 18.9-17.2 10.5 0 19 8.5 19 19v.9zm2 0v-.9c0-11.6-9.4-21-21-21-10.9 0-19.8 8.1-20.9 18.9-3.8-.7-7.5-1.4-11.2-2.3-.4-2.1-2.2-3.6-4.4-3.6-1.4 0-2.6.6-3.4 1.6-61.9-17.4-111.6-64.1-133.3-124.1 9.1-3.4 15.2-12.3 15.2-22 0-13-10.5-23.5-23.5-23.5-.7 0-1.5 0-2.3.1-.5-4.4-.8-8.9-1-13.4 1.7-.7 2.8-2.3 2.8-4.2 0-2-1.2-3.6-3-4.2v-.3C21 91.3 110.3 2 220 2s199 89.3 199 199c0 15.1-1.7 29.8-4.9 44-2.3.2-4.1 2.1-4.1 4.5 0 1.6.8 3 2 3.8-1.5 5.3-3.1 10.6-5 15.8h-.1c-2.4-.7-4.9-1-7.4-1-15.7 0-28.5 12.8-28.5 28.5 0 8.2 3.6 16.1 9.8 21.5 0 0 0 .1.1.1-35 47.7-90.8 79.5-153.9 81.7zM399.5 323c-5.8 0-11.3-1.8-15.9-5.3l-1.5-1.2-.1-.1c-5.7-5-9-12.3-9-19.9 0-14.6 11.9-26.5 26.5-26.5 2.3 0 4.6.3 6.8.9h.1l1.8.6c10.6 3.7 17.7 13.8 17.7 25 .1 14.6-11.8 26.5-26.4 26.5z" opacity=".232"/>
            <g transform="translate(95 76)">
                <use fill="#000" filter="url(#a)" xlink:href="#b"/>
                <use fill="url(#c)" fill-rule="evenodd" xlink:href="#b"/>
            </g>
            <path fill="#FFF" d="M183.7 181.7c-.8 0-1.3.7-.9 1.3.4.6 1.2.3 1.4-.6 0-.4-.2-.7-.5-.7zm1.8 0c-.2 0-.4.2-.4.5 0 .2.2.3.4.2.6-.4.6-.7 0-.7zm9.8-3.7c0-.9-.1-.9-.8-.5-.7.4-.9.8-.8 2 .1 1.2 0 1.6-.6 1.5-.5 0-.7.3-.7 1.7 0 1 0 2-.1 2.2 0 .2-.1.6 0 .8 0 .3 1.8 0 2-.3.5-.6.9-3.1.6-3.8-.2-.5-.2-1.3 0-1.8s.4-1.3.4-1.8zm6.6 15.6c-.3-.5-.6-.5-.6 0 0 .2.2.4.4.4.3 0 .4-.2.2-.4zm10.2-47.2c-.4.3-.7 1-.7 1.4 0 .8.1.8.8-.4 1-1.3.9-1.9-.1-1zm8.9 49.1c-2.7-.5-2.8-.5-3 .1-.1.3.4.6 1 .7 3.9.6 5.7-.2 2-.8zm3.1-.4c-.1.4 0 .6.2.6s.4-.3.4-.6c0-.8-.3-.8-.6 0zm12.7-.8c-.6.4-1.2.6-1.3.5-.3-.3-1.4.8-1.4 1.4 0 .7 1.8.5 2.7-.2.5-.3.7-.6.4-.6-.2 0-.1-.2.1-.5 1-1 .6-1.3-.5-.6zm0 0c-.6.4-1.2.6-1.3.5-.3-.3-1.4.8-1.4 1.4 0 .7 1.8.5 2.7-.2.5-.3.7-.6.4-.6-.2 0-.1-.2.1-.5 1-1 .6-1.3-.5-.6zm-12.7.8c-.1.4 0 .6.2.6s.4-.3.4-.6c0-.8-.3-.8-.6 0zm-3.1.4c-2.7-.5-2.8-.5-3 .1-.1.3.4.6 1 .7 3.9.6 5.7-.2 2-.8zm-19.1-1.9c-.3-.5-.6-.5-.6 0 0 .2.2.4.4.4.3 0 .4-.2.2-.4zm-6.6-15.6c0-.9-.1-.9-.8-.5-.7.4-.9.8-.8 2 .1 1.2 0 1.6-.6 1.5-.5 0-.7.3-.7 1.7 0 1 0 2-.1 2.2 0 .2-.1.6 0 .8 0 .3 1.8 0 2-.3.5-.6.9-3.1.6-3.8-.2-.5-.2-1.3 0-1.8s.4-1.3.4-1.8zm-9.8 3.7c-.2 0-.4.2-.4.5 0 .2.2.3.4.2.6-.4.6-.7 0-.7zm-1.8 0c-.8 0-1.3.7-.9 1.3.4.6 1.2.3 1.4-.6 0-.4-.2-.7-.5-.7zm28.4-35.3c-.4.3-.7 1-.7 1.4 0 .8.1.8.8-.4 1-1.3.9-1.9-.1-1zm-28.4 35.3c-.8 0-1.3.7-.9 1.3.4.6 1.2.3 1.4-.6 0-.4-.2-.7-.5-.7zm1.8 0c-.2 0-.4.2-.4.5 0 .2.2.3.4.2.6-.4.6-.7 0-.7zm9.8-3.7c0-.9-.1-.9-.8-.5-.7.4-.9.8-.8 2 .1 1.2 0 1.6-.6 1.5-.5 0-.7.3-.7 1.7 0 1 0 2-.1 2.2 0 .2-.1.6 0 .8 0 .3 1.8 0 2-.3.5-.6.9-3.1.6-3.8-.2-.5-.2-1.3 0-1.8s.4-1.3.4-1.8zm6.6 15.6c-.3-.5-.6-.5-.6 0 0 .2.2.4.4.4.3 0 .4-.2.2-.4zm10.2-47.2c-.4.3-.7 1-.7 1.4 0 .8.1.8.8-.4 1-1.3.9-1.9-.1-1zm8.9 49.1c-2.7-.5-2.8-.5-3 .1-.1.3.4.6 1 .7 3.9.6 5.7-.2 2-.8zm3.1-.4c-.1.4 0 .6.2.6s.4-.3.4-.6c0-.8-.3-.8-.6 0zm12.7-.8c-.6.4-1.2.6-1.3.5-.3-.3-1.4.8-1.4 1.4 0 .7 1.8.5 2.7-.2.5-.3.7-.6.4-.6-.2 0-.1-.2.1-.5 1-1 .6-1.3-.5-.6zm0 0c-.6.4-1.2.6-1.3.5-.3-.3-1.4.8-1.4 1.4 0 .7 1.8.5 2.7-.2.5-.3.7-.6.4-.6-.2 0-.1-.2.1-.5 1-1 .6-1.3-.5-.6zm-12.7.8c-.1.4 0 .6.2.6s.4-.3.4-.6c0-.8-.3-.8-.6 0zm-3.1.4c-2.7-.5-2.8-.5-3 .1-.1.3.4.6 1 .7 3.9.6 5.7-.2 2-.8zm-19.1-1.9c-.3-.5-.6-.5-.6 0 0 .2.2.4.4.4.3 0 .4-.2.2-.4zm-6.6-15.6c0-.9-.1-.9-.8-.5-.7.4-.9.8-.8 2 .1 1.2 0 1.6-.6 1.5-.5 0-.7.3-.7 1.7 0 1 0 2-.1 2.2 0 .2-.1.6 0 .8 0 .3 1.8 0 2-.3.5-.6.9-3.1.6-3.8-.2-.5-.2-1.3 0-1.8s.4-1.3.4-1.8zm-9.8 3.7c-.2 0-.4.2-.4.5 0 .2.2.3.4.2.6-.4.6-.7 0-.7zm-1.8 0c-.8 0-1.3.7-.9 1.3.4.6 1.2.3 1.4-.6 0-.4-.2-.7-.5-.7zm28.4-35.3c-.4.3-.7 1-.7 1.4 0 .8.1.8.8-.4 1-1.3.9-1.9-.1-1zm-28.4 35.3c-.8 0-1.3.7-.9 1.3.4.6 1.2.3 1.4-.6 0-.4-.2-.7-.5-.7zm1.8 0c-.2 0-.4.2-.4.5 0 .2.2.3.4.2.6-.4.6-.7 0-.7zm9.8-3.7c0-.9-.1-.9-.8-.5-.7.4-.9.8-.8 2 .1 1.2 0 1.6-.6 1.5-.5 0-.7.3-.7 1.7 0 1 0 2-.1 2.2 0 .2-.1.6 0 .8 0 .3 1.8 0 2-.3.5-.6.9-3.1.6-3.8-.2-.5-.2-1.3 0-1.8s.4-1.3.4-1.8zm6.6 15.6c-.3-.5-.6-.5-.6 0 0 .2.2.4.4.4.3 0 .4-.2.2-.4zm10.2-47.2c-.4.3-.7 1-.7 1.4 0 .8.1.8.8-.4 1-1.3.9-1.9-.1-1zm8.9 49.1c-2.7-.5-2.8-.5-3 .1-.1.3.4.6 1 .7 3.9.6 5.7-.2 2-.8zm3.1-.4c-.1.4 0 .6.2.6s.4-.3.4-.6c0-.8-.3-.8-.6 0zm12.7-.8c-.6.4-1.2.6-1.3.5-.3-.3-1.4.8-1.4 1.4 0 .7 1.8.5 2.7-.2.5-.3.7-.6.4-.6-.2 0-.1-.2.1-.5 1-1 .6-1.3-.5-.6zm0 0c-.6.4-1.2.6-1.3.5-.3-.3-1.4.8-1.4 1.4 0 .7 1.8.5 2.7-.2.5-.3.7-.6.4-.6-.2 0-.1-.2.1-.5 1-1 .6-1.3-.5-.6zm-12.7.8c-.1.4 0 .6.2.6s.4-.3.4-.6c0-.8-.3-.8-.6 0zm-3.1.4c-2.7-.5-2.8-.5-3 .1-.1.3.4.6 1 .7 3.9.6 5.7-.2 2-.8zm-19.7-1.9c0 .2.2.4.4.4s.3-.2.2-.4c-.3-.5-.6-.5-.6 0zm-6.9-16.1c-.7.4-.9.8-.8 2 .1 1.2 0 1.6-.6 1.5-.5 0-.7.3-.7 1.7 0 1 0 2-.1 2.2 0 .2-.1.6 0 .8 0 .3 1.8 0 2-.3.5-.6.9-3.1.6-3.8-.2-.5-.2-1.3 0-1.8s.4-1.3.4-1.8c.1-.9 0-1-.8-.5zm-8.9 4.2c-.2 0-.4.2-.4.5 0 .2.2.3.4.2.6-.4.6-.7 0-.7zm-1.8 0c-.8 0-1.3.7-.9 1.3.4.6 1.2.3 1.4-.6 0-.4-.2-.7-.5-.7zm28.4-35.3c-.4.3-.7 1-.7 1.4 0 .8.1.8.8-.4 1-1.3.9-1.9-.1-1zM345 203.8c-.4-2.4-1-4.1-1.9-4.5-.6-.3-1-.9-1.2-2.2-.1-1-.4-1.8-.6-1.8-.5 0-1-4.4-.6-5.5.3-1 1.1-1.2 1.1-.3 0 .3.3.6.6.6s.6.3.6.6.3.6.7.6c.6 0 .6-.7.4-5.6v-.3c-.2-4.8-.6-7.5-1.5-9.5-.5-1-1.1-1.8-1.9-2.6-1.7-1.6-1.9-2-2.5-5-.3-1.8-.5-3.4-.4-3.5.2-.2.4.2 1.1 3.2.3 1 .7 1.8.9 1.8.7 0 .2-4.2-.8-6.5-.5-1.1-.9-2.6-.9-3.4v-.6c-.2-2.5-1.6-9.1-2.1-10-.3-.6-.2-.7.2-.5.8.3.9-.7 0-2.6-.6-1.5-1.1-2.2-2.6-3.8-.5-.5-1.5-2.1-2.2-3.5-1.9-3.7-3-5.4-5.3-7.9-1.4-1.6-2.1-2.1-2.4-1.7-.4.7-.8.2-2.5-3.2-1.4-2.8-2.2-3.4-2-1.5v.1l.2 1.3-1.2-.9c-1.2-.9-2.3-2.1-1.3-1.5.3.2.4.1.2-.4-.1-.4 0-.7.2-.7.1 0 .2 0 .2-.1 0-.2-.1-.6-.4-1.2-.7-1.4-.7-1.4.1-.6.5.4 1 .7 1.2.7.2 0 1.4 1.1 2.6 2.3 1.2 1.3 2.3 2.3 2.5 2.3.5 0 .2-.7-.6-1.7-1-1.2-1.1-1.6-.2-.9.3.3.8.4.9.3.3-.3-7-10.1-7.6-10.1-.7 0-.5.4 1.2 2.7l1.6 2.2-1.4-1.1c-2.5-1.9-7.7-7.4-9-9.7-.7-1.3-2.4-3.1-3.9-4.3-3.7-3-6.2-5.3-5.2-4.8.5.2 1.2.8 1.7 1.3.9 1 1.5 1.1 1.5.3 0-.9-4.1-4.2-5.2-4.3-.6 0-.9-.2-.8-.7.1-.5-.2-.7-1.2-.7-.7 0-1.6-.2-1.9-.5-.3-.3-.8-.4-1-.2-.2.1-.7.1-1.1 0-.4-.2-.5-.4-.3-.5.8-.5-.1-1.1-3.1-2.1-2.8-1-4.1-.9-2.8.1.3.3.7.7.7 1 .1 1.3.2 1.5.8 1.2.7-.3 1.2.4.8 1-.2.3-.8 0-1.6-.8-.7-.7-3.3-2.5-5.8-3.9-2.5-1.5-5.3-3.4-6.3-4.3-1-.9-2-1.6-2.2-1.6-.2 0-.4-.2-.4-.5s-.7-1-1.6-1.5c-.9-.5-1.2-.8-.7-.7 3.9 1.3 8.7 2.4 8.7 1.9s-4.2-2.7-5.9-3.1c-.8-.2-2.6-.7-3.8-1.2-1.3-.5-2.7-.9-3.1-.9-.4 0-.8-.3-.8-.6s-.2-.6-.4-.6-.4.3-.4.7c0 .6-.1.6-1.3 0-.7-.4-1.6-.7-2.1-.7-.8 0-2.9-.7-5-1.7-.5-.2-3.1-.9-5.8-1.4-2.7-.6-5.2-1.2-5.6-1.3-.5-.2-.7-.1-.7.2 0 .7-4 .3-5.8-.6-.7-.4-1.8-.7-2.4-.7-.7 0-1.2-.2-1.2-.4s-.3-.4-.6-.4c-.4 0-.6.2-.6.4s-.3.4-.6.4c-1 0-.8.8.3 1.1.5.2 3.1 1.3 5.6 2.5 2.6 1.2 5.3 2.4 6.2 2.6 1 .2 3.1 1.1 4.2 1.7.6.3.9.6.6.6-1 0-.5.9.9 1.8 1 .6 1.4 1.1 1.2 1.6-.1.4 0 .9.2 1.1.6.4.6 1.1-.1 1.1-.3 0-.7.3-.9.7-.2.6-.3.6-1 0-.4-.4-1-.7-1.2-.7-.2 0-.5-.4-.7-.8-.1-.5-.6-.9-1.1-.9-.9 0-1.2 1-.5 1.5.2.1.4.6.4 1.1 0 1.5 2.8 2.2 4.4 1.1 1.5-1.1 5.9.1 5.9 1.6 0 .3.2.7.5.8.3.1-.3.2-1.2.2-1.4 0-1.8.2-2 .9-.3 1.3 0 1.6 1.3 1.7 1.1 0 1.1.1.4.6-.4.3-.7 1-.7 1.5 0 .9-.1.9-2 .3-2.6-.8-3.9-.8-4.2.1-.2.5-.6.6-2.1.4-1.2-.2-1.9-.1-1.9.2 0 .3-.4.3-1 .2-.6-.2-1.4 0-2.1.4-.7.5-1.5.6-2.5.4-1.3-.3-1.4-.2-.8.5 1.2 1.4 2.1 1.6 5 1.1 1.5-.3 2.7-.8 2.7-1 0-.3.1-.3.3 0 .2.2.7.7 1.2.9.8.5.8.5-.1.5-1.2 0-1.3 1.3-.1 1.6.8.2 1 .7 1.5 4.3.2 1 .4 1.8.6 1.8.2 0 .2.5.1 1.1-.1.6 0 1.1.3 1.1s.5.3.5.7c0 .6-.2.5-1-.3l-1-1-.1 1.2c-.1 1-.3 1.1-1.2.9-1-.3-1.1-.2-.8 1.2.2.8.6 1.7.9 2.1.3.4.6 1 .6 1.5s.5 1.3 1.2 1.9l1.2 1-1.7.3c-2.1.4-5.8-.3-7.1-1.3-.8-.7-1-1.2-.9-3.9 0-1.7.1-3.8.2-4.6.1-1.2 0-1.5-.6-1.6-.4-.1-.7.1-.7.5s-.5 1-1.1 1.5c-1.1.8-1.4 2-.9 4.4.1.6.4 2 .5 3.1.2 1.7.5 2.1 1.6 2.7.9.4 2 .6 3.1.5 2.9-.3 4.5 1.5 1.8 2-.9.2-2 .9-3 2-1.2 1.3-1.8 1.7-2.3 1.4-.4-.2-1.4-.4-2.1-.5-1.1-.2-1.4 0-1.4.5 0 .4.2.7.4.7s.4.3.4.7c0 .4.3 1 .7 1.4.6.7.6.7-.4.7-.6 0-1.3-.5-1.6-1-.5-.9-5.3-3.1-6.8-3.1-.5 0-.8-.2-.8-.4s-.3-.4-.6-.4-1.1-.5-1.7-1c-.8-.7-1.6-1-2.7-1-1.8 0-4.3.8-4.3 1.3 0 .2-.6.3-1.2.3s-1.4.2-1.5.4c-.2.2-1 .8-1.8 1.2-1.8.9-4.5 3.4-4.2 3.7.1.1.6 0 1.2-.3s1-.4 1.1-.3c.1.1-.3.4-.9.7-.6.3-1.7 1.5-2.5 2.7-1 1.5-2 2.4-3 2.7-.8.3-1.5.7-1.5.9 0 .2-.8.7-1.7 1.1-2.1.9-2.8 2.1-3.2 5.6-.4 3.2.2 4.4 2.1 4.4.7 0 1.7-.3 2.1-.6 1.3-1 1.9-.8 1.9.8 0 .8-.1 1.2-.3.9-.2-.4-.7-.4-2 0-1.9.7-2.3 1.2-2.6 3.7-.4 3.3-.5 3.4-2.8 3.4-1.9 0-2.2.1-3.2 1.5-1.2 1.6-3.5 3-3.9 2.5-.2-.2 0-.4.2-.5.8-.3.6-3.2-.3-5.7-1.3-3.7-1.5-5.2-.5-6.1 1.1-1 1.1-2.3 0-2.3-.7 0-.7-.2.5-1.2 1.1-1 1.3-1.4.9-1.8-.4-.4-.7-.4-1.4.2-.5.4-1 .6-1.3.5-.3-.2-.8-.1-1.1.2-.4.4-.6.4-.6 0 0-.8-1.4-.5-2.4.6-1.2 1.3-1.3 1.8-.3 2 .7.2.7.2 0 .2-.8.1-1.1.9-.3.9.3 0 .2.3-.1.8-.3.5-.8.7-1.5.6-.6-.1-1.3.1-1.8.5-.4.4-1.1.6-1.4.5-.8-.3-2.1 1.6-1.8 2.5.1.3-.2.8-.9 1.1-1.3.6-1.5 2.5-.2 2.8 1.2.4 4.8-.2 5.6-1 .4-.3.8-1 .8-1.5s.4-1.1.8-1.4c.7-.4.8-.4.6.1-.2.4 0 .6.4.6s.7-.3.8-.7c.1-.4.2-.3.2.4 0 1.1-.1 1.2-1.1 1.1-1-.1-1.2 0-1.1 1 0 .9-.2 1.2-.8 1.2-1 0-1.5 1.2-.7 1.7.5.3.4.5-.2 1-.5.4-1.4.8-2 .9-1.3.3-1.6 1-.4 1 .4 0 2.2.1 3.9.2 1.8.1 3.9.3 4.7.5l1.5.4-1.6.7c-1.6.7-1.7.7-2.5 0-.6-.5-.9-.6-1-.3-.1.3-.5.4-.8.3-.5-.2-.6 0-.4.8.1.6.1.8 0 .5-.1-.3-1-.5-1.9-.5-1.6 0-1.7.1-1.7 1.3 0 .8.3 1.4.6 1.5.3.1.6.5.6.8 0 .3.2.6.4.6.6 0 1 2.7.7 4.4-.2.8-.6 1.9-1 2.3-.7.8-.8.8-2.8.2-1.2-.3-2.3-.8-2.5-1.1-.2-.2-.7-.4-1-.4-.3 0-1-.3-1.4-.7-.6-.6-1-.6-2.5-.2-1.5.4-1.8.6-1.8 1.6 0 2-.8 4.2-2.2 5.9-1 1.3-1.2 1.9-1.1 2.9.2.8 0 1.6-.4 2.1-.8 1.1-.8 1.5.2 1.5.5 0 .9.2 1.1.4.1.2.6.4 1 .4.5 0 .8.4 1 1.3.3 2-1.5 4.2-3.9 4.8-2.5.7-5.1 3.3-5.4 5.5-.2 1.2-.5 1.7-1.4 2-.6.2-1.4.5-1.8.7-.3.1-.9.2-1.2.2-.3-.1-.5.1-.5.4 0 .3-.4.4-1 .2-.8-.2-1.1 0-1.6.8-.3.6-1.1 1.2-1.8 1.3-1.2.2-2.5 1.7-2.5 2.8 0 .4-.3.7-.7.9-.4.1-1.6 1.2-2.6 2.3-1.5 1.7-1.9 2.7-2.4 5.1-.8 3.6-.8 3.5-.2 3.2.3-.2.4.3.3 1.6-.2 1.7-1 2.3-.9.7 0-.4-.1-.7-.3-.7-.2 0-.4.6-.4 1.3 0 .7.2 1.3.4 1.3.5 0-.3 2.1-1.2 3-.4.4-.7 1.4-.7 2.8 0 1.2-.2 2.7-.3 3.4-.2 1-.1 1.6.5 2.5.5.7 1.1 1.6 1.4 2.1.3.4 1 1.4 1.7 2.1 1.2 1.4 1.8 3.7 1 4.3-.3.2.2.9 1.5 2.1 1.1 1 2.9 3 4.1 4.5 3.7 4.8 4.1 5 8.2 5.2 2.8.2 4.1.5 5.7 1.4 2 1.1 2.3 1.1 5.3.8 3.8-.4 6.5-.4 8.6 0 1.4.3 1.8.6 2.7 2.5.6 1.2 1.3 2.3 1.6 2.5.3.2 1.6.3 3 .3 2.7 0 4.2.5 3 1-.8.3-.9 1.6-.1 1.6.3 0 .8-.2 1.1-.5 1.2-1.2 1.8 1.8.7 3.3-.3.5-.6 1.5-.6 2.2 0 .9-.2 1.4-.6 1.4-.4 0-.6.2-.6.4 0 1 2.2 4 4.3 5.9 1.8 1.6 2.8 3.1 4.1 5.8 1 2 1.7 3.9 1.5 4.3-.2.4.1 1.3.6 2.2 1.2 2 1.1 2.4-.4 3.5-.7.5-1.4 1.5-1.5 2.1-.2.6-.5 1.4-.7 1.7-.9 1.2 0 3.8 2 5.9 1.2 1.3 2 2.4 2 3.1 0 .8.2 1 .7.8.4-.2.6-.1.4.2-.2.2.1.7.6 1.1.5.3.9.9.9 1.2 0 .3.1.6.3.6.2 0 .6.7.9 1.5.3.9 1.1 1.8 2.1 2.4 2 1.2 4.9 3.8 5 4.4 0 .2.1.7.1.9 0 .3.6.6 1.2.7.6.1 4.2.1 8 0 7.3-.2 9.7-.7 13.3-2.6 5.9-3.1 6-3.2 6.8-4.8.6-1.4 1.1-1.7 2.9-2.3 1.2-.4 2.4-.9 2.7-1.1.7-.6 1.1-3.4.5-4.1-.7-.8-.1-1.7 1.7-2.6.9-.5 1.9-1.1 2.2-1.5.3-.3 1.5-1 2.7-1.4 1.2-.4 3-1.5 4-2.5l1.8-1.7.1-3.8c.1-3.4 0-3.8-.8-4-1-.3-1.5-2.1-.8-3 .8-.9.8-1.7.1-3-.5-1-.5-1.2 0-1.3.7-.1.9-1.8.2-1.8-1.3 0 2.8-4.9 10.5-12.6 5.6-5.6 7.7-8.4 9.2-12.6.6-1.5 1.4-3.5 2-4.5.5-1 .8-2.1.7-2.4-.1-.3.1-.8.5-1 .6-.3.6-.5.2-1-.3-.3-.5-1.1-.5-1.7 0-.9-.2-1.2-.8-1.2-.5 0-1 .3-1.2.6-.3.5-2.9 1.9-5.7 3-.4.1-.9.4-1.3.6-.3.2-1.5.8-2.6 1.3-2.3 1-3.6.7-4-1.2-.3-1.3-1.8-2.8-4.5-4.6-1.1-.8-1.8-1.5-1.8-2.1 0-.6-.3-.9-1-1-.6-.1-1 .1-1 .5 0 .9-.7.9-1 0-.1-.3 0-.6.3-.7.4 0 .4-.1.1-.3-.2-.2-.9-1.2-1.4-2.2-.5-1.1-1.5-2.2-2.1-2.6-1-.6-1.3-1.1-1.5-2.7-.4-2.7-1.9-5.3-3.1-5.3-.5 0-1-1.2-.7-1.7.1-.2-.2-.8-.7-1.3-1.2-1.3-3.4-5.1-3.4-6 0-.3.3-.8.7-.9.8-.3 3.3 2.3 3.8 3.9.2.5.4 1 .6 1 .2 0 .7.6 1 1.2.3.7 1.1 1.3 1.6 1.5 1.1.3 1.9 1.7 2.9 5 .5 1.5.9 2 2 2.5.8.3 1.5 1 1.6 1.5.1.5 1.2 1.8 2.4 2.8 1.5 1.4 2.2 2.3 2.3 3.2.2 1.6.5 2.5 1.7 4.9.9 1.7 1.1 1.9 2.4 1.8.8 0 1.8-.5 2.5-1.2.6-.6 1.3-1.1 1.6-1.1.6 0 4.5-2.5 5.8-3.7.5-.5 2-1.5 3.1-2.3 1.3-.9 2.2-1.8 2.3-2.3.1-1.1 2.8-3.4 4.2-3.8.6-.2 1-.7 1.1-1.4.2-.7.6-1.3 1.1-1.4.5-.1.9-.6.9-1.1 0-.5.4-1.1.9-1.4.6-.4.8-1 .8-2.1s.2-1.6.6-1.6c.4 0 .7-.6.8-1.6.1-.9.4-2.3.5-3.1.2-1.4.2-1.6-1.3-2.5-1-.6-2-.9-2.6-.7-1.4.3-2.2-.1-3-1.5-.8-1.5-.9-2.9-.1-2.2.7.7 3.1.7 5.5-.1 1-.3 2.1-.5 2.3-.4.2.1.8-.2 1.3-.6.5-.4 1.5-1 2.3-1.4.8-.3 2-1 2.6-1.4.9-.6 1.3-.7 2-.3.5.2 1 .7 1.1 1.1.1.3.8.7 1.5.9.7.2 1.3.6 1.3.9 0 .3.2.6.5.6s1.3.4 2.2.9c1.1.6 2.2.8 3.3.7.9-.1 1.6 0 1.6.2s.5 1.1 1 1.9c.6.8.9 1.8.8 2.1-.1.3 0 .6.2.6s.6.4.7.9c.2.5.8 1.4 1.3 2 .6.6 1.5 2.1 2.1 3.3.6 1.2 1.2 2.3 1.5 2.3.3 0 1 1.2 1.6 2.5 1 1.9 1.4 2.3 2.2 2.3.8 0 1.1-.3 1.5-1.4.8-2.4 1.3-2.5 1.6-.2.3 2.5.8 3.2 1.6 2.9.9-.3 1.6-2 1.6-3.7 0-1.2-1.3-3.6-2.4-4.3-.7-.5-1.3-2.7-1.4-5.1 0-1.1-.3-2.7-.7-3.5-.6-1.3-.5-1.6.4-3.6.6-1.2 1-2.6 1-3.1 0-1.4.9-6.6 1.6-9 .3-1.1.6-2.5.6-3 0-1 2.6-7.1 3-7.1.1 0 1 .7 1.9 1.5.9.8 1.8 1.5 2 1.5.2 0 .6.8.8 1.8.3 1 .6 2.1.7 2.4.4 1.2 1.2.1 1.7-2.1l.4-2.3.9 2.5c.9 2.6 1.3 4 2.5 9.7.4 1.9 1 3.3 1.2 3.3.6 0 2.2 5.4 1.7 5.8-.2.2-.6 0-.9-.3-.5-.5-.8-.4-1.7.5-1.4 1.3-1.3 2.7.1 3.7 1 .6 1 .8.4 1.2-.7.5-.9 1.3-.3 1.5.5.2 2.2 4 2.2 4.8 0 .3.2.6.4.6s.4-.3.4-.6.1-.5.3-.7c0 0 .1 0 .1-.1.2-.1.7-2 1.1-4.2.2-3.7.2-7.8-.3-10.8zm-96.6-92.9c-.1.1-.4-.1-.5-.5-.2-.6-.2-.6.2-.2.3.2.5.6.3.7zm-8.9 59c.2.2.3.7.2 1-.3.8-2.7.8-2.7 0s1.9-1.6 2.5-1zm-4.8-26.1c.3-.4 1-.1 1 .5 0 .2-.2.4-.3.4-.6 0-.9-.5-.7-.9zm-3.9-14.2c1.9 0 2.1.1 2.1.9s-.2.9-2 .9c-1.6 0-2-.2-2.1-.9-.1-.8.1-.9 2-.9zm-.8 3.2c-.7-.3-.7-.4-.1-.4.4 0 .8.2 1 .4.3.5.3.5-.9 0zm-3.8 6.4c.7 0 1.9 1 1.9 1.5 0 .8-.9.8-1.6.1-.5-.6-.7-1.6-.3-1.6zm0 43.8c.4 0 .7.2.7.4 0 .5-.7.5-1.1 0-.2-.2 0-.4.4-.4zm-3.6-40.7c.7-.8.9-.8.6 0-.1.4-.4.6-.7.6-.3.1-.3-.2.1-.6zm-6.7-8.1c.1-.4.2-.8.2-1 0-.7 1.3-1.7 2.2-1.7 1.3 0 1 1.1-.6 2.3-1.7 1.3-2.2 1.4-1.8.4zm3.1 13.3c-.3.9-.8.8-1.4-.2-.4-.6-.4-.9.1-1.3.6-.6 1.7.5 1.3 1.5zm-5.6-11c.7-.7 1.4-1.2 1.5-1.2.4 0 .5 4.4.1 4.9-.5.8-2 1-2.8.4-1-.7-.5-2.5 1.2-4.1zm-8.1 15c.6 0 1.1.2 1.1.4s.3.4.6.4c.7 0 .9-.7.2-1.1-.8-.5-.5-1.1.5-1.1.5 0 1.2-.1 1.4-.3.7-.5 1.5-2.2 1.2-2.7-.5-.7.2-2.1 1.2-2.4 1-.3 1.8-1 2.1-1.7.1-.2 1.2-.3 2.7-.2 2.2.2 2.4.2 1.3.5-1.1.3-1.4.7-2.1 2.5-.4 1.2-.9 3-1 4.1-.1 1.2-.5 1.9-.9 2.1-.4.2-.8.5-1 .7-.2.3-.5.3-.8-.1-.7-.7-2.1-.7-3.1.1-1.1.8-3.2.8-3.2 0 0-.3-.3-.6-.6-.6s-.6-.2-.6-.4c0 0 .4-.2 1-.2zm-2.2-2.7c.4-.4.7-.9.5-1.4-.1-.5 0-.4.3.2.4.8.4 1.1-.1 1.4-1 .6-1.6.4-.7-.2zM232 281.5c-.4-.5-.4-.6.4-.4.5.1.9.4.9.6-.1.6-.8.5-1.3-.2zm10.2 6.2c.1.4.1 1.3 0 2.1-.2 1.1-.3 1.2-.5.6-.3-1.2.2-3.6.5-2.7zm-2.5-18.6c.9-.2 1.2-.1 1.4.4.3.8-.9 2.4-1.8 2.4-.3 0-.6.2-.7.5-.1.3-.5.5-1 .4-.7-.1-.9-.4-.7-1.4.1-.7.4-1.3.7-1.3.3 0 .6-.2.7-.4.2-.1.7-.5 1.4-.6zm-.2-70c-1.1 4.5-1.4 4.9-3.3 4.5-2.6-.5-4.7-.3-5.9.6-1 .7-1.5.7-3.3.4-1.2-.2-2.8-.5-3.6-.6-.8-.1-1.7-.4-1.9-.6-.2-.2-1.2-.5-2.1-.7-.9-.2-2-.7-2.5-1.1-1-1-2.7-1-4.6 0-1.3.6-1.5 1-1.7 2.7-.2 2.3-.7 2.4-3.4 1-1-.5-2.4-1.2-3.1-1.4-.7-.3-1.2-.8-1.2-1.3 0-.9-3-2.6-4.7-2.6-.5 0-1.6-.7-2.4-1.5-.8-.8-1.6-1.4-1.8-1.2-.2.1-.3 0-.2-.4.1-.4.6-.7 1-.7s1-.2 1.3-.4c.6-.4.5-.5-.7-2.9-.4-.7-.3-1 .2-1.2.3-.1.6-.6.6-1.1 0-.6-.2-.8-.6-.7-.3.1-.7 0-.8-.4-.2-.4-.9-.6-2.5-.5-1.2 0-3.3-.1-4.6-.2-8-.9-9.1-.9-13.7.6-.8.2-1.3.2-1.7-.2-.3-.3-1.1-.5-1.7-.6-1.6-.1-2-.4-2-1.3 0-1 1.4-1.4 2.8-.8 1.5.6 2.7.5 3.4-.2.4-.4.8-.5 1-.4.6.4 3-2.4 2.8-3.2-.3-1 2-3 4.2-3.8 2.3-.8 2.8-1.2 2.8-2.5 0-1.4.9-1.7 2.6-.8.8.4 1.6.7 1.9.7.6 0 .9-.1 3.4-1.3 1-.5 1.5-.5 2-.2.8.6 1.4 2.4.8 2.4-.3 0-.5.2-.5.4s.2.4.6.4c.3 0 1.1.8 1.8 1.7.7.9 1.4 1.7 1.5 1.7.3 0 1.2.8 3.5 2.8 1.1 1 1.7 2.6 1.2 3.4-.5.7-3.3 1-3.9.5-.6-.6-2.6 0-2.6.7 0 .6 2.1 2.4 2.8 2.4.1 0 .6.3.9.6 1 1 1.9.8 1.9-.6 0-.9.2-1.3.8-1.3.9 0 3.1-2.4 3.1-3.4 0-.4-.2-.9-.5-1.2-.3-.3-.3-.5 0-.7.2-.1.8.2 1.3.7.8.8.9.9 1.3.3.7-1.1.4-1.7-1.5-3.1-1-.7-1.9-1.6-1.9-1.9 0-.3-.4-.5-.8-.5-.9 0-2.6-1.9-2.6-2.9 0-.4-.5-1.2-1-1.8-.8-.8-.9-1.3-.7-2 .4-1.1 1.2-1.3 1.2-.3 0 .7.9 1.9 2.5 3.4.5.5.9 1.1.9 1.4 0 .2.7.7 1.5.9.8.3 2 1 2.6 1.5.9.9 1.1 1.3.9 2.3-.2 1.2.6 4 1.4 4.5.2.1.4.6.4 1.1 0 .5.2.8.5.8.4 0 .4.1-.1.4-.7.4-.3 1.3.6 1.3.3 0 .6.4.6.9 0 .6.4 1 1.3 1.4.7.3 1.3.6 1.3.8 0 .2.2.3.4.3s.4-.5.4-1.2.2-1.4.4-1.8c.5-.8 1.7-.2 1.7.8 0 .6.2.8.6.7.4-.1.8 0 .9.4.1.4.4.6.7.6.2 0 .3-.2.2-.4-.1-.2.1-.6.4-.8.6-.3.5-.6-1-2.2-.9-1-1.6-2-1.5-2.3.1-.2 0-.3-.2-.1-.3.2-1-.2-1.6-.9l-1.1-1.2 1.3-.3c.7-.1 1.7-.7 2.2-1.2.7-.8.8-.8.8-.3 0 .4-.2.7-.4.7s-.4.3-.4.6.3.6.6.6.6-.2.6-.5.1-.4.3-.2c.2.2.2 1.2.2 2.2-.1 1.5 0 1.9.6 1.9.4 0 .7.2.7.5s-.2.3-.4.2c-.2-.1-.4.1-.4.4 0 .5.2.6.8.4.6-.2.8-.1.6.4-.1.3.1 1 .6 1.5s.9 1.1.9 1.3c0 .8 1 .1 1.3-.9.2-.9.3-.9.9-.3 1.1 1.1 3.3.8 3.3-.4 0-.7 1.5-.4 2.6.6.9.8 3.1.4 3.7-.6.2-.4.8-.6 1.4-.5 1.7.4 2 2.9.8 7.3zm-19.5-8.4c0-.5.1-.5.5-.2.3.2.4.7.3 1-.2.6-.8 0-.8-.8zm26.6-11.1c-.8.8-1.5 1-3.8 1-1.6 0-3.1-.2-3.4-.5-.3-.3-.8-.4-1.1-.2-.2.1-.4.1-.4-.2 0-.8-3.9 0-5.6 1.1-2.2 1.4-5.2 1.4-6 0-.6-1-.5-2.9.2-2.9.2 0 .4-.5.4-1.2s.4-1.5.8-1.9c.5-.4.9-1.1.9-1.5 0-1 1.7-3 2-2.3.1.3.6.5 1 .5.5 0 .7.2.6.8-.1.5.1.9.7 1 .5.1.9.5.9.9 0 .9 1.1.9 2.5-.1 1.8-1.3 2.7-1.2 5.2.1 1.3.7 3.1 1.6 3.9 2.1 2.1 1.2 2.5 2.1 1.2 3.3zm50.6-82.2c.4.3.7.7.7.8 0 .4-.4.1-.9-.6s-.5-.7.2-.2zM261.8 79c.2-.2 5.5 1.3 5.5 1.6 0 .5-.8.4-2.6-.2-3.1-1-3.2-1.1-2.9-1.4zm2.7 105.7c-.2-.2-.9-.5-1.5-.5-1-.1-1.1-.3-1.2-2.6-.1-2 0-2.4.5-2.4.4 0 .7-.3.7-.6s-.3-.6-.6-.6c-.6 0-4.8-3.1-5.5-4-.2-.2-.4-.9-.6-1.5-.1-.6-.4-1.5-.7-2-.3-.7-.3-1.1.1-1.6.6-.8 1.7-.4 2.7.9.4.5 1 1 1.2 1 .2 0 .9.5 1.4 1.1.6.6 1.5 1.1 1.9 1.1.6 0 .9.3.9 1 0 .5.3 1.2.6 1.5.3.3.6.8.6 1.1 0 .3.4 1.3.9 2.2.5.9.9 1.8.9 2.1 0 .3.1.5.3.5.2 0 .6.6.9 1.4.5 1.2.4 1.4-.2 1.9-.8.5-2.8.6-3.3 0zm16 20.4c-.2 0-1 1.2-1.7 2.7-1.6 3.2-2 3.7-2.5 2.9-.3-.5-.4-.5-.4.1 0 1-1.8 2.1-2.6 1.6-.4-.3-.4-.5-.1-.6.3-.2.4-.6.1-1.5-.4-1.5-.4-1.5-1.5-1.8-.8-.2-.9-.1-.7.7.1.7 0 1-.4 1-.3 0-.6-.2-.6-.5s.2-.5.5-.3c.2.1.2 0-.2-.3s-1-1.1-1.4-1.8c-.5-.7-1-1.1-1.4-1-.3.1-.6 0-.6-.3s-.4-.9-1-1.3c-.7-.5-.8-.8-.4-.9.3-.1.5-.5.5-.9 0-.6.1-.6.4-.1.3.5.4.5.4-.3 0-.5.2-1 .5-1s.3.2.2.4c-.2.2-.1.4.2.4.3 0 .5.2.5.4 0 .8 3 3.5 3.7 3.3.4-.1 1.2.1 2 .4 2 1 4.7.6 6-1 .6-.7 1.1-1 1.1-.7-.2.1-.4.4-.6.4zm35.1-83c-.2-.7-.1-.8.4-.4.3.3.5.7.4.9-.4.6-.5.5-.8-.5zm26.1 92.4c-.2 0-.3-.3-.2-.6.3-.8.6-.8.6 0 .1.3-.1.6-.4.6zm1.2 2.1c-.1.5-.2.7-.2.3 0-.4-.2-1.1-.3-1.5-.2-.6-.2-.7.2-.3.2.3.4 1 .3 1.5zm-106.1-22.3c-.6.4-1.2.6-1.3.5-.3-.3-1.4.8-1.4 1.4 0 .7 1.8.5 2.7-.2.5-.3.7-.6.4-.6-.2 0-.1-.2.1-.5 1-1 .6-1.3-.5-.6zm-12.7.8c-.1.4 0 .6.2.6s.4-.3.4-.6c0-.8-.3-.8-.6 0zm-3.1.4c-2.7-.5-2.8-.5-3 .1-.1.3.4.6 1 .7 3.9.6 5.7-.2 2-.8zm-8.7-48c.9-1.4.8-1.9-.2-1.1-.4.3-.7 1-.7 1.4.1.8.2.8.9-.3zm-11 46.1c0 .2.2.4.4.4s.3-.2.2-.4c-.3-.5-.6-.5-.6 0zm-6.9-16.1c-.7.4-.9.8-.8 2 .1 1.2 0 1.6-.6 1.5-.5 0-.7.3-.7 1.7 0 1 0 2-.1 2.2 0 .2-.1.6 0 .8 0 .3 1.8 0 2-.3.5-.6.9-3.1.6-3.8-.2-.5-.2-1.3 0-1.8s.4-1.3.4-1.8c.1-.9 0-1-.8-.5zm-8.9 4.2c-.2 0-.4.2-.4.5 0 .2.2.3.4.2.6-.4.6-.7 0-.7zm-1.8 0c-.8 0-1.3.7-.9 1.3.4.6 1.2.3 1.4-.6 0-.4-.2-.7-.5-.7zm28.4-35.3c-.4.3-.7 1-.7 1.4 0 .8.1.8.8-.4 1-1.3.9-1.9-.1-1zm-28.4 35.3c-.8 0-1.3.7-.9 1.3.4.6 1.2.3 1.4-.6 0-.4-.2-.7-.5-.7zm1.8 0c-.2 0-.4.2-.4.5 0 .2.2.3.4.2.6-.4.6-.7 0-.7zm9.8-3.7c0-.9-.1-.9-.8-.5-.7.4-.9.8-.8 2 .1 1.2 0 1.6-.6 1.5-.5 0-.7.3-.7 1.7 0 1 0 2-.1 2.2 0 .2-.1.6 0 .8 0 .3 1.8 0 2-.3.5-.6.9-3.1.6-3.8-.2-.5-.2-1.3 0-1.8s.4-1.3.4-1.8zm6.6 15.6c-.3-.5-.6-.5-.6 0 0 .2.2.4.4.4.3 0 .4-.2.2-.4zm19.1 1.9c-2.7-.5-2.8-.5-3 .1-.1.3.4.6 1 .7 3.9.6 5.7-.2 2-.8zm3.1-.4c-.1.4 0 .6.2.6s.4-.3.4-.6c0-.8-.3-.8-.6 0zm12.7-.8c-.6.4-1.2.6-1.3.5-.3-.3-1.4.8-1.4 1.4 0 .7 1.8.5 2.7-.2.5-.3.7-.6.4-.6-.2 0-.1-.2.1-.5 1-1 .6-1.3-.5-.6zm0 0c-.6.4-1.2.6-1.3.5-.3-.3-1.4.8-1.4 1.4 0 .7 1.8.5 2.7-.2.5-.3.7-.6.4-.6-.2 0-.1-.2.1-.5 1-1 .6-1.3-.5-.6zm-12.7.8c-.1.4 0 .6.2.6s.4-.3.4-.6c0-.8-.3-.8-.6 0zm-3.1.4c-2.7-.5-2.8-.5-3 .1-.1.3.4.6 1 .7 3.9.6 5.7-.2 2-.8zm-8.9-49.1c-.4.3-.7 1-.7 1.4 0 .8.1.8.8-.4 1-1.3.9-1.9-.1-1zm-10.2 47.2c-.3-.5-.6-.5-.6 0 0 .2.2.4.4.4.3 0 .4-.2.2-.4zm-6.6-15.6c0-.9-.1-.9-.8-.5-.7.4-.9.8-.8 2 .1 1.2 0 1.6-.6 1.5-.5 0-.7.3-.7 1.7 0 1 0 2-.1 2.2 0 .2-.1.6 0 .8 0 .3 1.8 0 2-.3.5-.6.9-3.1.6-3.8-.2-.5-.2-1.3 0-1.8s.4-1.3.4-1.8zm-9.8 3.7c-.2 0-.4.2-.4.5 0 .2.2.3.4.2.6-.4.6-.7 0-.7zm-1.8 0c-.8 0-1.3.7-.9 1.3.4.6 1.2.3 1.4-.6 0-.4-.2-.7-.5-.7zm28.4-35.3c-.4.3-.7 1-.7 1.4 0 .8.1.8.8-.4 1-1.3.9-1.9-.1-1zm-28.4 35.3c-.8 0-1.3.7-.9 1.3.4.6 1.2.3 1.4-.6 0-.4-.2-.7-.5-.7zm1.8 0c-.2 0-.4.2-.4.5 0 .2.2.3.4.2.6-.4.6-.7 0-.7zm9.8-3.7c0-.9-.1-.9-.8-.5-.7.4-.9.8-.8 2 .1 1.2 0 1.6-.6 1.5-.5 0-.7.3-.7 1.7 0 1 0 2-.1 2.2 0 .2-.1.6 0 .8 0 .3 1.8 0 2-.3.5-.6.9-3.1.6-3.8-.2-.5-.2-1.3 0-1.8s.4-1.3.4-1.8zm6.6 15.6c-.3-.5-.6-.5-.6 0 0 .2.2.4.4.4.3 0 .4-.2.2-.4zm19.1 1.9c-2.7-.5-2.8-.5-3 .1-.1.3.4.6 1 .7 3.9.6 5.7-.2 2-.8zm3.1-.4c-.1.4 0 .6.2.6s.4-.3.4-.6c0-.8-.3-.8-.6 0zm12.7-.8c-.6.4-1.2.6-1.3.5-.3-.3-1.4.8-1.4 1.4 0 .7 1.8.5 2.7-.2.5-.3.7-.6.4-.6-.2 0-.1-.2.1-.5 1-1 .6-1.3-.5-.6zm0 0c-.6.4-1.2.6-1.3.5-.3-.3-1.4.8-1.4 1.4 0 .7 1.8.5 2.7-.2.5-.3.7-.6.4-.6-.2 0-.1-.2.1-.5 1-1 .6-1.3-.5-.6zm-12.7.8c-.1.4 0 .6.2.6s.4-.3.4-.6c0-.8-.3-.8-.6 0zm-3.1.4c-2.7-.5-2.8-.5-3 .1-.1.3.4.6 1 .7 3.9.6 5.7-.2 2-.8zm-8.9-49.1c-.4.3-.7 1-.7 1.4 0 .8.1.8.8-.4 1-1.3.9-1.9-.1-1zm-10.2 47.2c-.3-.5-.6-.5-.6 0 0 .2.2.4.4.4.3 0 .4-.2.2-.4zm-6.6-15.6c0-.9-.1-.9-.8-.5-.7.4-.9.8-.8 2 .1 1.2 0 1.6-.6 1.5-.5 0-.7.3-.7 1.7 0 1 0 2-.1 2.2 0 .2-.1.6 0 .8 0 .3 1.8 0 2-.3.5-.6.9-3.1.6-3.8-.2-.5-.2-1.3 0-1.8s.4-1.3.4-1.8zm-9.8 3.7c-.2 0-.4.2-.4.5 0 .2.2.3.4.2.6-.4.6-.7 0-.7zm-1.8 0c-.8 0-1.3.7-.9 1.3.4.6 1.2.3 1.4-.6 0-.4-.2-.7-.5-.7zm0 0c-.8 0-1.3.7-.9 1.3.4.6 1.2.3 1.4-.6 0-.4-.2-.7-.5-.7zm1.8 0c-.2 0-.4.2-.4.5 0 .2.2.3.4.2.6-.4.6-.7 0-.7zm9.8-3.7c0-.9-.1-.9-.8-.5-.7.4-.9.8-.8 2 .1 1.2 0 1.6-.6 1.5-.5 0-.7.3-.7 1.7 0 1 0 2-.1 2.2 0 .2-.1.6 0 .8 0 .3 1.8 0 2-.3.5-.6.9-3.1.6-3.8-.2-.5-.2-1.3 0-1.8s.4-1.3.4-1.8zm6.6 15.6c-.3-.5-.6-.5-.6 0 0 .2.2.4.4.4.3 0 .4-.2.2-.4zm19.1 1.9c-2.7-.5-2.8-.5-3 .1-.1.3.4.6 1 .7 3.9.6 5.7-.2 2-.8zm3.1-.4c-.1.4 0 .6.2.6s.4-.3.4-.6c0-.8-.3-.8-.6 0zm12.7-.8c-.6.4-1.2.6-1.3.5-.3-.3-1.4.8-1.4 1.4 0 .7 1.8.5 2.7-.2.5-.3.7-.6.4-.6-.2 0-.1-.2.1-.5 1-1 .6-1.3-.5-.6zm-15.8 1.2c-2.7-.5-2.8-.5-3 .1-.1.3.4.6 1 .7 3.9.6 5.7-.2 2-.8zm15.8-1.2c-.6.4-1.2.6-1.3.5-.3-.3-1.4.8-1.4 1.4 0 .7 1.8.5 2.7-.2.5-.3.7-.6.4-.6-.2 0-.1-.2.1-.5 1-1 .6-1.3-.5-.6zm-12.7.8c-.1.4 0 .6.2.6s.4-.3.4-.6c0-.8-.3-.8-.6 0zm-22.2-1.5c-.3-.5-.6-.5-.6 0 0 .2.2.4.4.4.3 0 .4-.2.2-.4zm-6.6-15.6c0-.9-.1-.9-.8-.5-.7.4-.9.8-.8 2 .1 1.2 0 1.6-.6 1.5-.5 0-.7.3-.7 1.7 0 1 0 2-.1 2.2 0 .2-.1.6 0 .8 0 .3 1.8 0 2-.3.5-.6.9-3.1.6-3.8-.2-.5-.2-1.3 0-1.8s.4-1.3.4-1.8zm-11.6 3.7c-.8 0-1.3.7-.9 1.3.4.6 1.2.3 1.4-.6 0-.4-.2-.7-.5-.7zm1.8 0c-.2 0-.4.2-.4.5 0 .2.2.3.4.2.6-.4.6-.7 0-.7zm26.6-35.3c-.4.3-.7 1-.7 1.4 0 .8.1.8.8-.4 1-1.3.9-1.9-.1-1zm0 0c-.4.3-.7 1-.7 1.4 0 .8.1.8.8-.4 1-1.3.9-1.9-.1-1zm61.3 137.4c-.6-.7-.7-.6-5.3 4.6-1.2 1.3-4.5 3.1-5.6 3.1-1 0-2 2.4-1.7 4.2.2 1.4.1 1.7-1 2.8-1.1 1-1.3 1.6-1.2 3 0 1 .1 1.9.2 2 .2.5 2.3.1 4.4-.7 1.4-.5 2.3-1.3 3.6-3.1 2.5-3.5 5.3-8.1 5.3-8.6 0-.2.2-.4.4-.4s.4-.5.4-1.1c0-.6.1-1 .3-.9.2.2.5.1.8-.2.5-.6.2-3.8-.6-4.7zm8.3 8.5c-.2 0-.4.2-.4.5s.2.3.4.2c.6-.4.6-.7 0-.7zm-100.9-26.4c-.2 0-.4.2-.4.5s.2.3.4.2c.6-.4.6-.7 0-.7zm100.1-30.2c-.5.3-.5.4.3.4.5 0 1.1-.2 1.2-.4.3-.5-.7-.5-1.5 0zm-23.5-2.6c-.3-.8-1.2-.9-1.2-.2 0 .4.3.7.7.7.3 0 .6-.2.5-.5zm-130.5-16.4c-.1.1-.1.4.1.7.3.6 1.1.6 1.1 0 0-.4-.9-1-1.2-.7zm2.2-1c-.3-.5-.6-.5-.6 0 0 .2.2.4.5.4.2.1.3-.1.1-.4zm-2-2.5c-.4-.4-.7-1-.7-1.3 0-.3-.2-.5-.4-.5-.6 0-.5.3.3 1.5.4.6.9 1 1.1 1 .2.1.1-.2-.3-.7zm208.3-14.5l-.4-1v1.1c0 .6.1 1.2.3 1.4.4.5.5-.4.1-1.5zm-189.3-1.6c-.1.1-.1.5.1.8.3.4.4.4.5 0 .2-.6-.2-1.2-.6-.8zm4.4-.8c-.1-.1-.7.3-1.3.9-.6.6-.9 1.1-.5 1.1.5 0 2.1-1.7 1.8-2zm-5.2-.6c-.4 0-.7.2-.7.4 0 .6.7.6 1.1 0 .2-.2 0-.4-.4-.4zm3-9.3c-.3-.5-.6-.5-.6 0 0 .2.2.4.4.4s.3-.2.2-.4zm-6.4-16.2c-.3-.6-.6-.6-.6 0 0 .2.2.4.5.4s.2-.2.1-.4zm-2.4-3.9c-.7-.4-1-.2-.6.4.2.3.5.3.7.2.3-.1.3-.3-.1-.6zm-37.4-22.9c-.2 0-.4.2-.4.4s.2.4.4.4.4-.2.4-.4-.2-.4-.4-.4zm.9-1.9l1.5-2.6c-.2-.2-1.5 2.1-1.5 2.6zm88.5-3.8c-.2.1-.5.6-.5 1 0 .6.1.6.6-.1.8-.9.7-1.4-.1-.9zm-3.5-4.9c-.3 0-.6.4-.6.9 0 1.1.1 1.1.7 0 .3-.7.3-.9-.1-.9zM226.7 69c-7.2-1-21.7 0-33.7 2.3-30.9 6.2-58.4 23.6-77.3 48.9-2 2.7-4 5.5-4.4 6.2l-.8 1.4 1-1.2c.8-1 1.3-1.2 2.2-1 1 .2 1.6-.1 3.3-1.6 1.1-1 2.3-1.9 2.5-1.9.2 0 .8-.3 1.2-.7.7-.7.8-.7.8 0 0 .4.2.7.4.7s.3.3.1.7c-.1.2-.1.3-.1.4 0 .2.1.2.4.1.3-.1.6-.4.5-.7-.1-.5 1.9-2.2 2.5-2.2.2 0 .6.5.9 1 .3.5.6 1 .8.8.2-.1.4 0 .4.2s-.4.5-.8.6c-.4.1-1 .6-1.3 1.1-.4.8-.4.9.2.9.4 0 1 .3 1.4.6 1 .9 3 1.3 3 .7 0-.3.3-.8.7-1.1.7-.5.6-.6-.4-.4-.7.1-1.3 0-1.4-.2-.1-.2 0-.4.4-.4.5 0 1.4-2.2 1.2-3.1 0-.2.3-.5.8-.6.5-.1.9-.4.9-.6 0-.2.3-.4.6-.4s.9-.5 1.4-1.1c.7-1.1.7-1.1-.4-2.1-1.3-1.1-1.2-1.2.9-.7 1.6.3 1.6.9.5 2.8-1 1.7-1.2 3.1-.2 1.9.4-.5.6-1.2.6-1.6 0-.5.2-.7.4-.5.2.1.3.6.2 1-.3 1 .4 1.9 1.5 1.9.5 0 1 .2 1.1.5.1.5-2.9 1.9-4.2 2-.4 0-.8.2-.8.3 0 .2-.4.4-.9.5-.6.2-.8.5-.7 1 .8 2.7.8 3.3.1 3-.4-.2-.7-.1-.7.3 0 .3.3.6.7.6.4 0 .5.2.3.5s-.4.8-.4 1.1c-.1.8.6.6 1.8-.5.6-.6 1-1.1.8-1.1-.2 0 .1-.4.7-1 1.3-1.2 1.7-2.2 1.1-2.8-.4-.3-.4-.5 0-.5.3 0 .5-.3.5-.7 0-.4.6-.9 1.3-1.1 1-.3 1.2-.6 1-1.1-.2-.5-.2-.6.2-.2.6.6 3.1-1.5 3.8-3.3.3-.7.7-1.1.8-1 .2.1.6-.6.9-1.5.3-.9 1.2-2.3 2.1-3.1 3-2.8 6.4-5.9 7.1-6.4.6-.5.5-.5-1.3-.3-1.2.1-2 0-2-.2 0-.7 1.8-2.2 3.5-2.9.9-.4 1.6-.9 1.6-1.1 0-.2.7-1 1.5-1.8.8-.7 1.4-1.4 1.3-1.6-.1-.1.1-.7.4-1.2.4-.5.5-1 .3-1-.5 0-3.2 1-4.2 1.5-.5.2-1.3.4-1.8.4s-1.3.3-1.7.7c-1.6 1.8-5.8 3.1-6.1 2-.1-.2-.8 0-1.7.6-.9.6-1.8 1.1-2 1.1-.1 0-.2 0-.3.1-.1.1-.1.2-.1.3 0 .2-.2.3-.5.2-.1 0-.1 0-.2-.1-.6-.2-.5-.4.5-.9.7-.3 1.8-1.1 2.5-1.8.7-.6 1.9-1.4 2.6-1.7.7-.3 1.5-1 1.8-1.5.2-.5 1.3-1.6 2.2-2.4 1-.8 2.6-2.1 3.6-3 1-.9 2.4-1.9 3.2-2.3.8-.4 1.9-.9 2.5-1.3 1.4-.8 3.6-.8 4.3 0l.1.1c.3.3.7.6.9.6.2 0 .7.3 1 .6.7.7.1 1.3-1 .9-.9-.3-2.5 1.2-1.8 1.7.3.2.2.5-.3.9-.4.3-.6.7-.5.8.2.2 1.2-.3 2.3-1.1 1.7-1.2 2.2-1.3 3.8-1.1 1 .1 2.5.1 3.4-.1.9-.2 1.6-.2 1.6 0s-.5.4-1 .4-1.3.3-1.6.7c-.3.4-1 .8-1.5 1-.7.3-.9.6-.7 1.2.1.5 0 .9-.2.9-.3 0-.5-.2-.5-.5 0-.4-.1-.4-.4.1-.5.7-1.7.3-1.7-.6 0-.8 0-.8-1.5-.2-.6.2-1.3 1-1.6 1.7-.2.7-1.2 1.9-2.2 2.7-1 .8-2.2 2.2-2.8 3.2-1 1.8-.9 2.2.4 1 .8-.7 1.1-.2.3.6-.3.3 0 .3 1.2 0 .9-.3 2.2-1.1 3-1.8 1.3-1.3 3.2-2.5 3.2-2.1 0 .1-.6.8-1.3 1.4l-1.3 1.2 1.8.1c1.9.1 2.1-.1 4.8-3.2.7-.8 1.5-1.4 1.8-1.4 1 0 4.4-1.9 4.4-2.5 0-.3.3-.5.6-.5s.7-.3.8-.6c.1-.3 1.3-1.2 2.6-1.8 2.5-1.3 4.9-4.1 4.1-4.9-.8-.8-5.7-.2-7.2.9-1.4 1-2.9 1.2-3.3.5-.1-.2.1-.4.5-.4s1.3-.4 2-.8c.7-.5 2.5-1 4.1-1.3 2.5-.5 3-.4 3.9.2.7.5 1.2.6 1.4.3.2-.2.6-.4.9-.4.5 0 .4.3-.5 1.3-1.4 1.6-1.4 2.5-.2 2.6 7.1.3 10.5 1.2 9.7 2.5-.3.5-.6.4-1.9-.4-1-.6-1.8-.8-2.3-.6-.4.2-.9.3-1.1.2-.2-.1-1.1.3-2.1.8-1.4.7-1.7 1.1-1.5 1.8.3 1.3-1.3 2.7-5.4 4.6-2.1 1-3.7 2-3.8 2.5-.2.6-.6.7-1.4.6-.6-.1-1.5.1-2 .5-.8.6-.8.7-.1 1.3.7.5.7.6-.3.8-.6.1-1.1 0-1.1-.2 0-1.4-5.1 1.3-8.8 4.6-3.9 3.5-5.3 5.4-5.5 7.1-.1.7-.2 1.8-.4 2.3-.4 1.3.2 1.2 3.6-.6 1.6-.8 3.5-1.5 4.2-1.5.7 0 1.3-.2 1.3-.4s.7-.7 1.5-1c1.2-.5 1.7-.5 2.1-.1.4.3 1.3.4 2.8.2 3.7-.5 5.2-.5 8.8.3.9.2 4.2-.7 4-1.1-.2-.3 0-.3.6-.2.5.2.9.1.9-.1 0-.6 3.3-3.7 4-3.7.3 0 .9-.2 1.2-.5.3-.3.8-.5 1-.5 1.5-.2 2.4-.6 2.2-1.1-.3-.7.4-1.6 1.3-1.8.4-.1 1-.4 1.2-.8.3-.4.6-.5.7-.4.1.1.5-.1.7-.6.3-.6.3-.9-.1-1.1-.3-.1-.1-.2.4-.1s1 0 1-.2c0-.4 3.6-2.1 4.5-2.1.3 0 .6-.3.6-.6s-.3-.6-.7-.6c-.4 0-.5-.2-.4-.4.1-.2 0-.4-.3-.4-.4 0-.4-.1.1-.4.3-.2.7-.9.8-1.5.1-.8-.1-1.2-1.2-1.8-.7-.4-1.7-.7-2.2-.8-.5 0-1.3-.5-1.8-1l-.9-.9 1-.3c.6-.1 1.3-.8 1.5-1.4.4-.9.4-1.2-.3-1.7-.5-.3-.8-.7-.7-.8.3-.5 0-1-.5-1-.3 0-.7-.3-.8-.6-.2-.4-.9-.6-2.2-.6-1.4 0-1.9-.1-1.7-.5.2-.3-.2-.4-1.2-.3-1.7.2-2.3-.5-1.3-1.5.6-.6.6-.6 0-.6-.4 0-.9-.1-1.3-.3-.4-.2-.7 0-.7.4s-.4.7-.8.7c-.5 0-.9.2-1.1.4-.4.6-1.6 0-1.3-.7.5-1.3-3.8-1-5.6.3-.6.5-2.8.3-3-.3-.2-.7 3.7-1.6 7-1.6 2.9 0 3.1-.1 3.3-1 .2-.7.6-1 1.8-1.2 2.9-.5 5.8-1.2 6.6-1.6.7-.4.7-.4-.2-1.1-.1-.1-.2-.2-.4-.2-1.2-.5-3.4-.5-4 .1-.2.2-.2.4.1.4.2 0 .3 0 .3.1v.3c-.1.2-.7.2-1.5.1-.1 0-.2-.1-.3-.1-.8-.2-1.6-.3-1.8-.2-.2.1-.6 0-.9-.2-.5-.3-.3-.4.6-.6.7-.2 1.6-.5 2-.7.4-.2 1.8-.5 3-.7 1.2-.1 3.2-.7 4.5-1.3 3-1.3 3.7-1.4 14-1.5 5.9-.1 8.8-.3 9.1-.6.3-.3.9-.5 1.4-.6.7 0 .8-.1.1-.2-1.2-.3-.4-1 1.2-1 .8 0 1.5-.2 1.6-.6.1-.3.7-.7 1.2-.8 1.5 0 .2-.4-1.8-.7zm-90.2 32.7c.7-.7 1.4-1.5 1.6-1.9.5-.9 1.1-1 1.4-.3.1.4 0 .5-.3.2-.4-.2-.4-.2-.2.2.2.3-.2 1-.9 1.7-2.2 2.1-2.7 2.4-2.7 1.8-.1-.2.4-1 1.1-1.7zm-3.7 2.6c.8-.5 1.4-.5 1.1 0-.2.2-.6.4-1 .4-.7 0-.7-.1-.1-.4zm-2.4 3.6c1-1 1.7-.8.8.2-.4.5-.9.9-1.1.9-.5 0-.4-.3.3-1.1zm-3.4 5.9c.2-.7.5-1.5.7-1.7.3-.3.3 0 .1.9-.2.7-.5 1.5-.7 1.7-.3.3-.3 0-.1-.9zm-.6-2.5c.2-.1.4.2.3.8 0 .6-.2 1.1-.4 1.1-.5 0-.4-1.6.1-1.9zm48.4-19.4c.2 0 .5.2.7.4.1.2.1.4-.2.4-.2 0-.5-.2-.7-.4-.1-.2 0-.4.2-.4zm19.3-5.2c.7.2.7.4.3.9-.3.3-.8.6-1.2.6-.6 0-.6 0 0-.4.5-.4.5-.4-.1-.4-.4 0-.8.2-.9.5-.1.3-.2.3-.2-.2-.1-.9 1-1.4 2.1-1zm-12.7-3.9c-.1.4-.5.6-.9.6s-.9.3-1.2.7c-.3.5-.6.6-.8.2-.2-.3.3-.8 1.1-1.3 1.7-1 2.2-1.1 1.8-.2zm6.9-7c.3 0 .6.2.6.4s-.3.4-.6.4-.6-.2-.6-.4.3-.4.6-.4zm-3.8 3.8c.1-.2.5-.4.7-.4.2 0 .3.2.2.4-.1.2-.5.4-.7.4-.3 0-.4-.2-.2-.4zm.3 43c-.9-.2-2-.4-2.5-.4-.7 0-.9-.2-.7-.9.2-.6 0-.8-.6-.8-1.3 0-1.9.6-1.6 1.5.2.6.1.7-.4.5-.4-.2-.8-.1-1 .1-.1.2 0 .4.2.4s.4.3.4.6-.3.6-.6.6c-.8 0-.8.7 0 1 .3.1.6.5.6.9 0 .5.6.7 2.7.7 3.4 0 4.8-.7 4.9-2.4.2-1.2.1-1.4-1.4-1.8zm53.1-1.3c-.8 0-1.2.8-.6 1.4.6.6 1.4.2 1.4-.6 0-.5-.2-.8-.8-.8zM218 107.1c.6.2 1.8-.9 1.4-1.4-.4-.4-3.3-.6-3.3-.2 0 .2-.6.3-1.4.2-.8-.1-1.5 0-1.7.4-.5.8-.4 2.4.1 2.4.2 0 .4.3.4.7 0 .4.2 1.1.5 1.6.5.9.5.8 1.4-.7.9-1.6 1.8-2.1 1.4-.8-.1.5.1.8.6.8 1.1.1 1.4-.7.6-1.5-.7-.9-.8-1.8 0-1.5zm-60.3-2.3c-.1-.1-.5 0-.8.3-.4.4-.4.5.2.2.4-.1.7-.4.6-.5zm88-.5c-.9-.9-1.3-.8-.5.1.3.4.7.7.9.7.1 0 0-.3-.4-.8zm-14-2.6c-.2-.3-.4-.3-.6 0-.2.3-.6.4-1.5 0-1.1-.4-1.2-.4-1 .9.1.9-.1 1.4-.5 1.5-.3.1-.5 0-.4-.2.1-.2 0-.6-.3-.8-.3-.3-.7-.2-1.2.3s-.6.8-.2.9c1.5.6 3.2.1 3.3-.9 0-.4.1-.5.2-.2s.6.5 1.1.5c.8 0 .8-.1.3-.4-.5-.3-.5-.4-.1-.4.3 0 .4-.2.3-.4-.1-.2-.1-.4.2-.4.5.1.5-.2.4-.4zm-82.2-2.2c-.5.1-1.1.4-1.2.6-.4.6.4.4 1.3-.2.8-.7.8-.7-.1-.4zm9.6-3.7c-.5.3-.5.4.1.4.4 0 .8-.2 1-.4.3-.6-.2-.6-1.1 0zm2.8-2.6c-.3 0-.6.2-.6.4s.3.4.6.4.6-.2.6-.4-.3-.4-.6-.4zm38.2-7.1c-.3-.1-.7-.1-.8 0-.1.1.1.2.6.2.4 0 .5-.1.2-.2zm-4.1-1c-.2.1 0 .3.4.5.8.3 3-.1 3.5-.7.3-.3-3.4-.1-3.9.2zm3.7-2.4c-1-.1-1.3.6-.4.9.7.3 1.2.2 1.3-.4 0-.2-.4-.5-.9-.5zm.9-2.5c-.6.2-2.1.4-3.3.5-1.6.2-2.4.5-3.1 1.3-.5.6-1 1.1-1 1.3 0 .2.4.1 1 0 .5-.2 1.4-.3 2-.3 1 0 1-.1.2-.4-.7-.3-.5-.4 1.1-.6 1.1-.2 2.2-.2 2.5 0 .6.4 1.7-.5 1.7-1.4 0-.5-.3-.6-1.1-.4zm34.6-4.7c-.4-.1-1-.1-1.3 0-.3.1 0 .2.8.2s.9-.1.5-.2z" opacity=".357"/>
            <g fill="#70C946">
                <path d="M352.6 101.3c.2-.5.4-1.2.4-1.8 0-2.5-2-4.5-4.5-4.5-.3 0-.5 0-.8.1-2.1-2.5-4.3-5-6.5-7.4 0-.1.1-.1.1-.1 3.1-4.1 4.7-9 4.7-14.1 0-13-10.5-23.5-23.5-23.5-6.8 0-13.3 3-17.7 8.1-.1 0-.1.1-.1.2C279.8 43.5 250.9 35 220 35c-37.5 0-72.2 12.5-100 33.6-.8-1-2.1-1.6-3.5-1.6-2.5 0-4.5 2-4.5 4.5 0 1 .3 2 .9 2.7-2.2 1.8-4.3 3.8-6.4 5.7 0 0-.1 0-.1-.1-3.8-3.1-8.5-4.9-13.4-4.9-11.6 0-21 9.4-21 21 0 6.3 2.8 12.2 7.7 16.2l.1.1C63.5 138 54 168.4 54 201c0 91.5 74.5 166 166 166s166-74.5 166-166c0-37.4-12.4-71.9-33.4-99.7zM322.5 52c11.9 0 21.5 9.7 21.5 21.5 0 4.6-1.4 9-4.2 12.7l-.1.1c-.4.5-.8 1-1.2 1.4-4.1 4.5-9.9 7.1-16 7.1-11.9 0-21.5-9.7-21.5-21.5 0-4.5 1.4-8.9 4.1-12.6v-.1c.4-.6.8-1 1.2-1.4l.1-.1c4-4.4 9.9-7.1 16.1-7.1zM74 96c0-10.5 8.5-19 19-19 4.4 0 8.7 1.5 12.1 4.3 0 0 .1 0 .1.1.5.4.9.8 1.4 1.3 3.5 3.6 5.4 8.3 5.4 13.3 0 10.5-8.5 19-19 19-3.8 0-7.4-1.1-10.5-3.2-.5-.3-1-.7-1.5-1.1l-.1-.1C76.5 107 74 101.7 74 96zm146 269c-90.4 0-164-73.6-164-164 0-32.2 9.3-62.2 25.4-87.5 3.5 2.3 7.5 3.5 11.6 3.5 11.6 0 21-9.4 21-21 0-5.5-2.1-10.8-6-14.7 2.1-2 4.3-3.9 6.5-5.8.6.3 1.3.5 2 .5 2.5 0 4.5-2 4.5-4.5 0-.4 0-.7-.1-1.1C148.4 49.4 182.8 37 220 37c30.4 0 58.9 8.3 83.4 22.8-2.9 4-4.4 8.7-4.4 13.7 0 13 10.5 23.5 23.5 23.5 6.6 0 13-2.8 17.4-7.7 2 2.2 4 4.4 5.9 6.6-1.1.8-1.8 2.1-1.8 3.6 0 2.5 2 4.5 4.5 4.5 1.1 0 2.1-.4 2.9-1 20.5 27.4 32.6 61.3 32.6 98 0 90.4-73.6 164-164 164z" opacity=".4"/>
                <path d="M99.3 92.5l-8.2 8.2c-.2.2-.4.3-.6.3h-.3c-.1 0-.3-.1-.4-.2l-1.1-1.1-2.4-2.4c-.2-.2-.2-.4-.2-.6 0-.2.1-.5.3-.6.3-.3.9-.3 1.2 0l2.9 2.9 7.6-7.6c.1-.1.3-.2.4-.2.3-.1.6 0 .8.2.3.2.3.8 0 1.1z" opacity=".6"/>
            </g>
        </g>
        <g fill="#70C946" opacity=".8" transform="translate(198 387)">
            <g opacity=".5">
                <path d="M10.2 13.9c-.4-.4-.8-.7-.8-.7l-.1-.1V3.8c0-1.7-1.3-3-3-3s-3 1.4-3 3V13l-.1.1C1.7 14.2.9 15.9.9 17.6c0 3 2.5 5.5 5.5 5.5 1.5 0 2.9-.6 3.9-1.6s1.6-2.4 1.6-3.9c-.2-1.3-.7-2.7-1.7-3.7zm-3.9 7.6c-2.1 0-3.9-1.7-3.9-3.9 0-1.6 1-3 2.4-3.6V4.2c0-.8.6-1.4 1.4-1.4.8 0 1.4.6 1.4 1.4V14c1.5.6 2.4 2 2.4 3.6.1 2.2-1.6 3.9-3.7 3.9z"/>
                <path fill-rule="nonzero" d="M13.6 7.1v.8c0 .2-.2.4-.4.4h-1.6c-.2 0-.4-.2-.4-.4v-.8c0-.2.2-.4.4-.4h1.6c.2 0 .4.2.4.4zM15.2 3.1v.8c0 .2-.2.4-.4.4h-3.3c-.2 0-.4-.2-.4-.4v-.8c0-.2.2-.4.4-.4h3.3c.2 0 .4.2.4.4zM15.2 11.2v.8c0 .2-.2.4-.4.4h-3.3c-.2 0-.4-.2-.4-.4v-.8c0-.2.2-.4.4-.4h3.3c.2 0 .4.2.4.4z"/>
            </g>
            <circle cx="6.2" cy="17.7" r="2.1" opacity=".5"/>
        </g>
        <g fill="#70C946" opacity=".5">
            <path d="M322.3 79.8c-3.6 0-6.5-2.9-6.5-6.5s2.9-6.5 6.5-6.5 6.5 2.9 6.5 6.5-2.9 6.5-6.5 6.5m0-11.3c-2.6 0-4.8 2.1-4.8 4.8 0 2.6 2.1 4.8 4.8 4.8 2.6 0 4.8-2.1 4.8-4.8 0-2.6-2.2-4.8-4.8-4.8M322.3 65.1c-.5 0-.8-.4-.8-.8v-3c0-.5.4-.8.8-.8.5 0 .8.4.8.8v3c.1.4-.3.8-.8.8M322.3 86.2c-.5 0-.8-.4-.8-.8v-3c0-.5.4-.8.8-.8.5 0 .8.4.8.8v3c.1.5-.3.8-.8.8M334.4 74.2h-3c-.5 0-.8-.4-.8-.8 0-.5.4-.8.8-.8h3c.5 0 .8.4.8.8s-.3.8-.8.8M313.2 74.2h-3c-.5 0-.8-.4-.8-.8 0-.5.4-.8.8-.8h3c.5 0 .8.4.8.8.1.4-.3.8-.8.8M328.7 67.8c-.2 0-.4-.1-.6-.2-.3-.3-.3-.9 0-1.2l2.1-2.1c.3-.3.9-.3 1.2 0 .3.3.3.9 0 1.2l-2.1 2.1c-.2.1-.4.2-.6.2M313.8 82.7c-.2 0-.4-.1-.6-.2-.3-.3-.3-.9 0-1.2l2.1-2.1c.3-.3.9-.3 1.2 0 .3.3.3.9 0 1.2l-2.1 2.1c-.2.1-.4.2-.6.2M330.8 82.7c-.2 0-.4-.1-.6-.2l-2.1-2.1c-.3-.3-.3-.9 0-1.2.3-.3.9-.3 1.2 0l2.1 2.1c.3.3.3.9 0 1.2-.1.1-.3.2-.6.2M315.9 67.8c-.2 0-.4-.1-.6-.2l-2.1-2.1c-.3-.3-.3-.9 0-1.2.3-.3.9-.3 1.2 0l2.1 2.1c.3.3.3.9 0 1.2-.2.1-.4.2-.6.2"/>
        </g>
        <path fill="#70C946" fill-rule="nonzero" d="M25.2 237.9c-4.8 0-9.9.8-9.9 3 0 .4.2.7.5 1l.2.2-.2.1c-1 .5-1.5 1.1-1.5 1.9 0 .8.5 1.4 1.6 1.9l.2.1-.2.2c-.5.7-.6 1.3-.6 1.5 0 1.4 1.4 2.2 2.5 2.7l.2.1-.1.2c-.3.5-.5.9-.5 1.4 0 1 .8 2 2.2 2.7l.2.1-.1.2c-.1.2-.2.5-.2.8 0 1.7 2 3 4.6 3 2.6 0 4.6-1.3 4.6-3 0-.3-.1-.7-.2-.8l-.1-.2.2-.1c1-.5 2.2-1.3 2.2-2.7 0-.8-.4-1.5-1.2-2.1l-.2-.2.2-.1c.8-.5 1.2-1.2 1.2-2 0-.3-.1-.8-.6-1.5l-.2-.2.2-.1c1.1-.5 1.6-1.1 1.6-1.9 0-.2 0-.4-.1-.6l-.1-.2.2-.1c2.2-.6 3.2-1.4 3.2-2.4.1-2.1-5-2.9-9.8-2.9zm-8.1 9.8c0-.1.3-.6 1.3-1h.1c1.9.4 3.9.4 4.6.4.8 0 2.7 0 4.6-.4h.1c1 .4 1.2.8 1.2 1 0 .1 0 .2-.1.3-.5.6-2.4 1.5-5.8 1.5-3.7.1-6-1.2-6-1.8zm7 9.3c-1.7 0-2.8-.8-2.8-1.2 0-.2.1-.3.2-.3l.1-.1h.1c.8.1 1.7.2 2.5.2s1.7-.1 2.5-.2h.1l.1.1c.2.1.2.3.2.3-.1.4-1.3 1.2-3 1.2zm0-3.2c-.9 0-1.9-.1-2.6-.3-1.6-.4-2.3-1.1-2.3-1.4 0-.2.3-.6.8-.9h.1c1 .1 1.9.2 2.9.2 1.4 0 3-.2 4.3-.5 1.2.4 1.6 1 1.6 1.2.2.5-1.7 1.7-4.8 1.7zm5.7-9.6c-.8.4-3.1 1.1-6.8 1.1-3.6 0-5.9-.7-6.7-1.1l-.4-.2.4-.1c.1 0 .2-.1.3-.1.3-.1.7-.3 1.3-.4l.6-.1c2.5.5 5.6.6 6.6.6.6 0 2.3 0 4.1-.2l.8.4-.2.1zm3.1-3.1c-1.2.5-4 1.1-7.7 1.1-2.8 0-5.2-.3-6.6-.8-.5-.1-.9-.2-1.1-.3l-.4-.2.4-.1c1.3-.5 4-1.1 7.7-1.1s6.4.5 7.7 1.1l.4.2-.4.1z" opacity=".38"/>
        <g fill="#70C946" fill-rule="nonzero" opacity=".5">
            <path d="M406.9 307h-14.8c-.6 0-1.1-.5-1.1-1.1V287c0-.6.5-1.1 1.1-1.1h10.3v4.2c0 .8.6 1.4 1.4 1.4h4.2V306c0 .5-.5 1-1.1 1zm1.7-17.1l-4.5-4.5c-.4-.4-1-.7-1.7-.7H392c-1.3 0-2.4 1-2.4 2.4V306c0 1.3 1 2.4 2.4 2.4h14.8c1.3 0 2.4-1 2.4-2.4v-14.4c.1-.7-.2-1.3-.6-1.7z"/>
            <path d="M404.3 302.9h-9.6c-.3 0-.6.3-.6.6s.3.6.6.6h9.6c.3 0 .6-.3.6-.6 0-.4-.3-.6-.6-.6zM404.3 298.7h-9.6c-.3 0-.6.3-.6.6s.3.6.6.6h9.6c.3 0 .6-.3.6-.6s-.3-.6-.6-.6zM404.3 294.6h-9.6c-.3 0-.6.3-.6.6s.3.6.6.6h9.6c.3 0 .6-.3.6-.6 0-.4-.3-.6-.6-.6z"/>
        </g>
    </g>
</svg>
