<?xml version="1.0" encoding="UTF-8"?>
<svg width="23px" height="23px" viewBox="0 0 23 23" version="1.1" xmlns="http://www.w3.org/2000/svg" xmlns:xlink="http://www.w3.org/1999/xlink">
    <!-- Generator: Sketch 61 (89581) - https://sketch.com -->
    <title>Path</title>
    <desc>Created with Sketch.</desc>
    <g id="Symbols" stroke="none" stroke-width="1" fill="none" fill-rule="evenodd">
        <g id="Article-Trending" transform="translate(-294.000000, -181.000000)" fill="#9DA2C4" fill-rule="nonzero">
            <g id="Group" transform="translate(25.000000, 173.000000)">
                <g id="Group-3" transform="translate(269.000000, 8.000000)">
                    <path d="M11.5,0 C5.149125,0 0,5.17565021 0,11.5592411 C0,17.354274 4.24733333,22.1397998 9.78075,22.9759182 L9.78075,14.62244 L6.93545833,14.62244 L6.93545833,11.5842861 L9.78075,11.5842861 L9.78075,9.56238221 C9.78075,6.21501864 11.4032083,4.74603175 14.170875,4.74603175 C15.49625,4.74603175 16.19775,4.84524857 16.5293333,4.88955899 L16.5293333,7.54144155 L14.6414167,7.54144155 C13.4665,7.54144155 13.0563333,8.66172467 13.0563333,9.92360849 L13.0563333,11.5842861 L16.499625,11.5842861 L16.0329167,14.62244 L13.0563333,14.62244 L13.0563333,23 C18.6692917,22.2351635 23,17.4111069 23,11.5592411 C23,5.17565021 17.850875,0 11.5,0 Z" id="Path"></path>
                </g>
            </g>
        </g>
    </g>
</svg>