<?xml version="1.0" encoding="UTF-8"?>
<svg width="22px" height="19px" viewBox="0 0 22 19" version="1.1" xmlns="http://www.w3.org/2000/svg" xmlns:xlink="http://www.w3.org/1999/xlink">
    <!-- Generator: Sketch 61 (89581) - https://sketch.com -->
    <title>icons8-dna_helix</title>
    <desc>Created with Sketch.</desc>
    <g id="Landing-Page" stroke="none" stroke-width="1" fill="none" fill-rule="evenodd">
        <g id="Landing" transform="translate(-709.000000, -1940.000000)" fill="#00B0E2" fill-rule="nonzero">
            <g id="icons8-dna_helix" transform="translate(709.000000, 1940.000000)">
                <path d="M0,0 L0,1.83333333 C2.735678,1.83333333 4.5618485,2.742839 6.11588633,4.16796967 C7.67708333,5.60026133 8.90885417,7.58398483 10.1835947,9.64648483 C11.4511723,11.7089848 12.7545568,13.8502613 14.5807292,15.5188807 C16.4140625,17.180339 18.8131515,18.3333333 22,18.3333333 L22,3.66666667 C21.3268238,3.66666667 20.7324223,3.75976517 20.1666667,3.88867233 L20.1666667,16.3424488 C19.5006515,16.2278655 18.891928,16.0345057 18.3333333,15.798178 L18.3333333,4.61197917 C17.6744792,4.99869883 17.0729167,5.507161 16.5,6.11588633 L16.5,14.6953125 C16.2708333,14.5162765 16.0345057,14.3587235 15.819661,14.1582027 C15.4186193,13.7929697 15.0319015,13.3847652 14.6666667,12.9479167 L14.6666667,8.47916667 C14.2226572,9.13085983 13.7786458,9.83268183 13.3059905,10.5989583 L13.1484375,10.8567708 C12.7760417,10.305339 12.4108068,9.74674433 12.0455738,9.16666667 C13.2128902,7.28320267 14.3802083,5.485678 15.819661,4.16796967 C17.3880208,2.742839 19.235678,1.83333333 22,1.83333333 L22,0 C18.8131515,0 16.4140625,1.14583333 14.5807292,2.81445267 C13.1126307,4.15364583 12.0097652,5.80794317 10.9570322,7.4765625 C9.91861933,5.81510417 8.81575567,4.16080683 7.36197917,2.8216155 C5.54296967,1.15299433 3.15820267,0 0,0 Z M0,3.66666667 L0,18.3333333 C4.92708333,18.3333333 7.66992233,15.6549488 9.8684905,12.4251307 C9.49609467,11.852214 9.14518183,11.2721363 8.80143183,10.6992197 C8.79427083,10.7063807 8.78710983,10.7207027 8.77994883,10.7350265 L8.69401133,10.5989583 C8.22135417,9.83268183 7.77734467,9.13085983 7.33333333,8.47916667 L7.33333333,12.7473958 C6.7747405,13.4420568 6.16601517,14.0651042 5.5,14.602214 L5.5,6.11588633 C4.92708333,5.507161 4.32552083,4.99869883 3.66666667,4.61197917 L3.66666667,15.7265625 C3.100911,15.977214 2.4993485,16.1848958 1.83333333,16.313803 L1.83333333,3.88867233 C1.26757767,3.75976517 0.673178,3.66666667 0,3.66666667 Z" id="Shape"></path>
            </g>
        </g>
    </g>
</svg>