<svg xmlns="http://www.w3.org/2000/svg" width="46" height="29" viewBox="0 0 46 29">
    <path fill="#E4E6F4" fill-rule="nonzero" d="M39.172 0c-1.404 0-2.954.562-4.256 1.864-1.955 1.954-3.033 3.785-5.166 5.211-1.876 1.247-3.65 1.55-6.031 1.55h-2.875c-.247 0-.494.067-.719.19l-2.875 1.652v-3.28c0-.449-.213-.864-.562-1.134a1.43 1.43 0 0 0-1.246-.258c-1.292.348-2.527 1.247-3.964 2.583-1.19 1.112-2.415 2.56-3.482 4.256-3.594-3.155-5.245-6.75-5.245-6.75L.124 7.054s1.774 3.953 5.716 7.513C4.245 16.127 2.875 18.789 2.875 23H5.75c0-3.234.775-5.031 1.685-6.064.707 4.11 3.043 7.007 5.334 8.804 2.752 2.168 5.525 2.954 5.525 2.954a1.437 1.437 0 0 0 1.831-1.381v-.63c1.91.888 4.324 2.022 4.324 2.022.112.034.236.045.348.045 6.334 0 11.23-2.224 14.656-5.47 3.436-3.245 5.424-7.468 6.221-11.5.27-1.347.326-2.874.326-4.592C46 3.301 43.103 0 39.172 0zm0 2.875c2.414 0 3.953 1.73 3.953 4.313 0 1.65-.067 3.032-.27 4.031-.696 3.515-2.448 7.199-5.379 9.973-2.886 2.74-6.93 4.604-12.5 4.65-.134-.034-2.549-.64-5.491-2.606a1.441 1.441 0 0 0-2.235 1.201v.506c-.865-.36-1.348-.382-2.707-1.449-1.605-1.269-3.122-3.066-3.885-5.615 2.616 1.336 5.75 2.246 9.467 2.246 3.695 0 7.558-.36 11.096-1.82 3.549-1.448 6.75-4.076 8.883-8.321l-2.583-1.28c-1.82 3.66-4.369 5.705-7.378 6.951-3.021 1.236-6.525 1.595-10.018 1.595-4.02 0-7.244-1.19-9.782-2.808.944-1.56 2.033-2.964 3.1-3.964.415-.393.55-.37.932-.64v3.1c0 .516.27.988.719 1.246.438.247.988.258 1.437 0l4.695-2.684h2.493c2.65 0 5.188-.416 7.625-2.044 2.684-1.786 3.953-3.908 5.615-5.57.854-.854 1.438-1.011 2.213-1.011z"/>
</svg>
