<?xml version="1.0" encoding="UTF-8"?>
<svg width="23px" height="24px" viewBox="0 0 23 24" version="1.1" xmlns="http://www.w3.org/2000/svg" xmlns:xlink="http://www.w3.org/1999/xlink">
    <!-- Generator: Sketch 61 (89581) - https://sketch.com -->
    <title>Combined Shape</title>
    <desc>Created with Sketch.</desc>
    <g id="Symbols" stroke="none" stroke-width="1" fill="none" fill-rule="evenodd">
        <g id="Article-Trending" transform="translate(-381.000000, -181.000000)" fill="#9DA2C4">
            <g id="Group" transform="translate(25.000000, 173.000000)">
                <g id="Group-3" transform="translate(269.000000, 8.000000)">
                    <path d="M98.5,0.5 C104.851275,0.5 110,5.64872538 110,12 C110,18.3512746 104.851275,23.5 98.5,23.5 C92.1487254,23.5 87,18.3512746 87,12 C87,5.64872538 92.1487254,0.5 98.5,0.5 Z M100.61656,8.5 C99.3699969,8.5 98.3596089,9.45644562 98.3596089,10.635809 C98.3596089,10.8027056 98.3800794,10.9652255 98.4185762,11.1230769 C96.5432325,11.0332095 94.8799267,10.1818037 93.7671861,8.88981432 C93.5716468,9.20551724 93.461656,9.57519894 93.461656,9.96530504 C93.461656,10.7067109 93.8591506,11.3594164 94.4653223,11.7439788 C94.0953254,11.733183 93.7470211,11.6348541 93.442102,11.4772944 L93.442102,11.5023873 L93.442102,11.5023873 C93.442102,12.5384881 94.2202872,13.4012732 95.2517568,13.5976393 C95.0632447,13.6469496 94.8640391,13.6743767 94.6587229,13.6743767 C94.512985,13.6743767 94.3709135,13.6586207 94.233425,13.6349867 C94.5206233,14.4817241 95.3538038,15.1005836 96.3409716,15.1189655 C95.5685915,15.6908488 94.5957837,16.0333952 93.5380385,16.0333952 C93.3553315,16.0333952 93.1765964,16.0234748 93,16.0030504 C93.9993889,16.607321 95.1860678,16.9615385 96.4598228,16.9615385 C100.610449,16.9615385 102.881149,13.7064721 102.881149,10.8826525 C102.881149,10.7901592 102.878093,10.6979576 102.873511,10.6069231 C103.316529,10.3081432 103.698442,9.93116711 104,9.50050398 C103.595784,9.67148541 103.161014,9.78557029 102.702414,9.83954907 C103.168653,9.57519894 103.527345,9.1535809 103.695692,8.65551724 C103.259395,8.89973475 102.776046,9.07917772 102.261839,9.17371353 C101.851207,8.75793103 101.265506,8.5 100.61656,8.5 Z" id="Combined-Shape"></path>
                </g>
            </g>
        </g>
    </g>
</svg>