<svg xmlns="http://www.w3.org/2000/svg" width="258" height="26" viewBox="0 0 258 26">
    <g fill="#BBB" fill-rule="nonzero">
        <path d="M57.85 22.2c2.825 0 5-1.975 5-5.125 0-5.775-7.625-4.4-7.625-8.675 0-1.225.8-2.55 2.425-2.55 1.075 0 2.075.425 2.9 2L61.9 7c-.825-1.5-1.7-2.7-4.25-2.7-2.2 0-4.075 1.7-4.075 4.3 0 5.275 7.55 4.175 7.55 8.525 0 2.35-1.4 3.525-3.275 3.525-2.425 0-3.35-1.95-3.925-4.025l-1.425.85c.575 2.725 2.425 4.725 5.35 4.725zm13.225 0c2.475 0 4.2-1.2 5.075-3.475l-1.4-.55c-.675 1.65-1.8 2.575-3.675 2.575-2.7 0-3.95-2.325-3.95-5.05 0-2.725 1.25-5.05 3.95-5.05 1.875 0 3 .925 3.675 2.575l1.4-.55C75.275 10.4 73.55 9.2 71.075 9.2c-3.7 0-5.575 3.2-5.575 6.5s1.875 6.5 5.575 6.5zm9.75-15.15A1.25 1.25 0 0 0 82.1 5.775 1.25 1.25 0 0 0 80.825 4.5a1.25 1.25 0 0 0-1.275 1.275c0 .725.55 1.275 1.275 1.275zM81.6 22V9.4h-1.55V22h1.55zm9.7.2c2.325 0 3.95-.9 5.25-3.475l-1.375-.675c-.925 1.875-1.95 2.7-3.875 2.7-2.525 0-3.975-2.1-3.975-5.05h9.5V15c0-3.475-2.275-5.8-5.525-5.8-3.35 0-5.6 2.75-5.6 6.5s2.25 6.5 5.6 6.5zm3.925-7.95h-7.8c.425-2.05 1.775-3.6 3.875-3.6 2.275 0 3.625 1.425 3.925 3.6zM102.05 22v-5.525c0-3.575 1.775-5.825 4.075-5.825 1.75 0 2.575 1.075 2.575 2.9V22h1.55v-8.65c0-2.65-1.5-4.15-3.875-4.15-1.825 0-3.475 1.175-4.325 2.825V9.4h-1.55V22h1.55zm17.425.2c2.475 0 4.2-1.2 5.075-3.475l-1.4-.55c-.675 1.65-1.8 2.575-3.675 2.575-2.7 0-3.95-2.325-3.95-5.05 0-2.725 1.25-5.05 3.95-5.05 1.875 0 3 .925 3.675 2.575l1.4-.55c-.875-2.275-2.6-3.475-5.075-3.475-3.7 0-5.575 3.2-5.575 6.5s1.875 6.5 5.575 6.5zm13.225 0c2.325 0 3.95-.9 5.25-3.475l-1.375-.675c-.925 1.875-1.95 2.7-3.875 2.7-2.525 0-3.975-2.1-3.975-5.05h9.5V15c0-3.475-2.275-5.8-5.525-5.8-3.35 0-5.6 2.75-5.6 6.5s2.25 6.5 5.6 6.5zm3.925-7.95h-7.8c.425-2.05 1.775-3.6 3.875-3.6 2.275 0 3.625 1.425 3.925 3.6zM151.2 22v-7.5h6.3v-3h-6.3v-4h7.825v-3H147.95V22h3.25zm15.675.2c3.05 0 4.75-1.45 5.725-3.675l-2.5-.925c-.75 1.3-1.625 1.95-3.05 1.95-1.925 0-2.9-1.45-2.975-2.85h8.675v-1.275c0-2.75-1.675-6.225-5.875-6.225-4.325 0-6.05 3.525-6.05 6.5s1.725 6.5 6.05 6.5zm2.7-7.95h-5.425c.225-1.2 1.15-2.4 2.725-2.4 1.65 0 2.425 1.15 2.7 2.4zm11.2 7.95c3.05 0 4.75-1.45 5.725-3.675L184 17.6c-.75 1.3-1.625 1.95-3.05 1.95-1.925 0-2.9-1.45-2.975-2.85h8.675v-1.275c0-2.75-1.675-6.225-5.875-6.225-4.325 0-6.05 3.525-6.05 6.5s1.725 6.5 6.05 6.5zm2.7-7.95h-5.425c.225-1.2 1.15-2.4 2.725-2.4 1.65 0 2.425 1.15 2.7 2.4zm10.9 7.95c1.55 0 2.7-.85 3.05-1.5V22h3.1V4.3h-3.1v6.25c-.55-.7-1.775-1.35-3.05-1.35-3.8 0-5.75 2.625-5.75 6.5s1.95 6.5 5.75 6.5zm.425-2.65c-1.625 0-2.925-1.35-2.925-3.85s1.3-3.85 2.925-3.85c1.625 0 2.9 1.35 2.9 3.85s-1.275 3.85-2.9 3.85zm15.875 2.65c3.8 0 5.75-2.625 5.75-6.5s-1.95-6.5-5.75-6.5c-1.275 0-2.5.65-3.05 1.35V4.3h-3.1V22h3.1v-1.3c.35.65 1.5 1.5 3.05 1.5zm-.425-2.65c-1.625 0-2.9-1.35-2.9-3.85s1.275-3.85 2.9-3.85 2.925 1.35 2.925 3.85-1.3 3.85-2.925 3.85zm12.025 2.65c1.8 0 3-.725 3.875-1.8l.325 1.6h2.55v-7.525c0-4.025-2.3-5.275-5.3-5.275-2.575 0-4.4 1.425-4.8 3.5l2.625.6c.4-1.175 1.3-1.45 2.175-1.45 1.15 0 2.2.45 2.2 1.85v.55h-2.1c-3.175 0-5.375 1.625-5.375 4.125s1.675 3.825 3.825 3.825zm.725-2.65c-.875 0-1.3-.625-1.3-1.225 0-1.125.825-1.625 2.15-1.625h2.075v.25c0 1.625-1.5 2.6-2.925 2.6zm14.575 2.65c2.8 0 4.775-1.225 5.725-3.6l-2.775-1.125c-.65 1.325-1.55 2.075-2.95 2.075-1.95 0-2.9-1.625-2.9-3.85s.95-3.85 2.9-3.85c1.4 0 2.3.75 2.95 2.075L243.3 12.8c-.95-2.375-2.925-3.6-5.725-3.6-4.1 0-6.15 2.95-6.15 6.5s2.05 6.5 6.15 6.5zm11.65-.2v-5.95l4.45 5.95h3.8l-5.375-6.8 5.05-5.8h-3.825l-4.1 4.95V4.3h-3.1V22h3.1zM12 0C8.906 0 6.508 4.578 6.078 10.938c.555.59 1.207 1.175 1.93 1.746.008-.664.047-1.297.101-1.918.582-.403 1.313-.895 1.891-1.23C12.66 8 15.398 6.987 17.707 6.687a9.934 9.934 0 0 1 1.266-.086c1.297 0 2.214.312 2.554.898.305.531.168 1.375-.343 2.363.523.485 1.02.977 1.46 1.473C23.77 9.473 24 7.78 23.259 6.5c-.883-1.527-2.942-2.168-5.805-1.797-2.566.332-5.566 1.434-8.453 3.102-.184.105-.355.222-.535.336C9.184 4.44 10.645 2 12 2c.633 0 1.29.54 1.883 1.477.68-.211 1.351-.395 2.004-.532C14.852 1.09 13.507 0 12 0zM5.219 4.613C3.05 4.574 1.48 5.223.742 6.5c-.805 1.39-.469 3.258.914 5.309.125.191.262.394.434.617 1.57 2.054 4.023 4.101 6.91 5.77.184.105.375.199.562.304-1.144.395-2.253.68-3.273.813-1.95.253-3.375-.051-3.812-.813-.309-.531-.172-1.375.34-2.363a23.582 23.582 0 0 1-1.465-1.469C.23 16.528 0 18.218.742 19.5c.719 1.246 2.219 1.902 4.297 1.902.473 0 .98-.035 1.508-.105.305-.04.61-.09.922-.152l.218-.047c.016 0 .028-.004.043-.008.532-.113 1.118-.27 1.79-.48l.66-.204c.98-.336 1.984-.754 2.988-1.242.219-.727.414-1.574.562-2.55-.578.323-1.16.616-1.738.89-.668-.313-1.34-.66-1.992-1.04-2.664-1.538-4.91-3.401-6.32-5.25C2.484 9.649 2.035 8.263 2.477 7.5c.3-.523 1.097-.82 2.195-.875.156-.707.336-1.379.547-2.012zm11.523 4.285c-.789.184-1.625.454-2.48.793.566.336 1.105.696 1.629 1.055.062.727.109 1.469.109 2.254 0 5.898-1.855 10.398-3.64 10.941-.122.04-.247.059-.36.059-.633 0-1.29-.535-1.883-1.48-.68.214-1.351.398-2.004.535C9.148 24.91 10.493 26 12 26c.2 0 .39-.02.578-.059C15.707 25.348 18 19.988 18 13c0-.215-.016-.422-.02-.637.915.793 1.72 1.61 2.344 2.422 1.192 1.567 1.64 2.953 1.203 3.715-.308.527-1.093.832-2.199.887-.156.699-.332 1.375-.543 2.004.055 0 .121.011.176.011 2.078 0 3.578-.656 4.297-1.902.883-1.527.406-3.633-1.348-5.926-1.242-1.625-3.043-3.242-5.168-4.676zM12 11a1.999 1.999 0 1 0 0 4 1.999 1.999 0 1 0 0-4z"/>
    </g>
</svg>
